<?xml version="1.0" encoding="utf-8"?>
<!-- Generator: Adobe Illustrator 16.0.0, SVG Export Plug-In . SVG Version: 6.00 Build 0)  -->
<!DOCTYPE svg PUBLIC "-//W3C//DTD SVG 1.1//EN" "http://www.w3.org/Graphics/SVG/1.1/DTD/svg11.dtd">
<svg version="1.1" id="Layer_1" xmlns="http://www.w3.org/2000/svg" xmlns:xlink="http://www.w3.org/1999/xlink" x="0px" y="0px"
	 width="3456px" height="1728px" viewBox="0 0 3456 1728" enable-background="new 0 0 3456 1728" xml:space="preserve">
<g>
	<path fill="#FFFFFF" stroke="#000000" stroke-width="0.25" stroke-miterlimit="10" d="M1943.608,1950.193
		c-20.27,0-36.701,15.662-36.701,34.98v779.639c0,19.32,16.432,34.98,36.701,34.98h23.336v-849.6H1943.608z M1944.937,2771.689
		c-5.131,0-9.289-4.16-9.289-9.291c0-5.129,4.158-9.289,9.289-9.289s9.289,4.16,9.289,9.289
		C1954.226,2767.529,1950.067,2771.689,1944.937,2771.689z M1945.054,1996.131c-5.129,0-9.289-4.16-9.289-9.291
		s4.16-9.289,9.289-9.289c5.131,0,9.291,4.158,9.291,9.289S1950.185,1996.131,1945.054,1996.131z"/>
	<path fill="#FFFFFF" stroke="#000000" stroke-width="0.25" stroke-miterlimit="10" d="M1990.28,1950.193h-23.336v849.6h23.336
		c20.27,0,36.699-15.66,36.699-34.98v-779.637C2026.979,1965.855,2010.55,1950.193,1990.28,1950.193z M1988.937,1978.428
		c5.131,0,9.289,4.16,9.289,9.289c0,5.131-4.158,9.291-9.289,9.291s-9.289-4.16-9.289-9.291
		C1979.647,1982.588,1983.806,1978.428,1988.937,1978.428z M1989.001,2772.492c-5.129,0-9.289-4.16-9.289-9.291
		s4.16-9.289,9.289-9.289c5.131,0,9.289,4.158,9.289,9.289S1994.132,2772.492,1989.001,2772.492z"/>
	<path fill="#FFFFFF" stroke="#000000" stroke-width="0.25" stroke-miterlimit="10" d="M1990.28,2799.793h-1.736v14.4h-21.6v820.799
		h21.6v14.4h1.736c20.27,0,36.699-15.662,36.699-34.98v-779.639C2026.979,2815.453,2010.55,2799.793,1990.28,2799.793z
		 M1988.884,3621.912c-5.131,0-9.291-4.16-9.291-9.291s4.16-9.289,9.291-9.289c5.129,0,9.289,4.158,9.289,9.289
		S1994.013,3621.912,1988.884,3621.912z M1989.009,2846.531c-5.131,0-9.291-4.16-9.291-9.291s4.16-9.289,9.291-9.289
		c5.129,0,9.289,4.158,9.289,9.289S1994.138,2846.531,1989.009,2846.531z"/>
	<path fill="#FFFFFF" stroke="#000000" stroke-width="0.25" stroke-miterlimit="10" d="M1945.343,2814.193v-14.4h-1.734
		c-20.27,0-36.701,15.662-36.701,34.98v779.639c0,19.32,16.432,34.98,36.701,34.98h1.734v-14.4h21.602v-820.799H1945.343z
		 M1944.946,2827.062c5.131,0,9.289,4.158,9.289,9.289s-4.158,9.291-9.289,9.291c-5.129,0-9.289-4.16-9.289-9.291
		S1939.817,2827.062,1944.946,2827.062z M1944.999,3621.145c-5.129,0-9.289-4.16-9.289-9.291s4.16-9.289,9.289-9.289
		c5.131,0,9.291,4.158,9.291,9.289S1950.13,3621.145,1944.999,3621.145z"/>
</g>
<g>
	<path fill="#FFFFFF" stroke="#000000" stroke-width="0.25" stroke-miterlimit="10" d="M2063.688,1950.193
		c-20.27,0-36.701,15.662-36.701,34.98v779.639c0,19.32,16.432,34.98,36.701,34.98h23.336v-849.6H2063.688z M2065.017,2771.689
		c-5.131,0-9.291-4.16-9.291-9.291c0-5.129,4.16-9.289,9.291-9.289c5.129,0,9.289,4.16,9.289,9.289
		C2074.306,2767.529,2070.146,2771.689,2065.017,2771.689z M2065.134,1996.131c-5.129,0-9.289-4.16-9.289-9.291
		s4.16-9.289,9.289-9.289c5.131,0,9.289,4.158,9.289,9.289S2070.265,1996.131,2065.134,1996.131z"/>
	<path fill="#FFFFFF" stroke="#000000" stroke-width="0.25" stroke-miterlimit="10" d="M2110.36,1950.193h-23.336v849.6h23.336
		c20.27,0,36.699-15.66,36.699-34.98v-779.637C2147.06,1965.855,2130.63,1950.193,2110.36,1950.193z M2109.017,1978.428
		c5.129,0,9.289,4.16,9.289,9.289c0,5.131-4.16,9.291-9.289,9.291c-5.131,0-9.291-4.16-9.291-9.291
		C2099.726,1982.588,2103.886,1978.428,2109.017,1978.428z M2109.081,2772.492c-5.131,0-9.289-4.16-9.289-9.291
		s4.158-9.289,9.289-9.289s9.289,4.158,9.289,9.289S2114.212,2772.492,2109.081,2772.492z"/>
	<path fill="#FFFFFF" stroke="#000000" stroke-width="0.25" stroke-miterlimit="10" d="M2110.36,2799.793h-1.736v14.4h-21.6v820.799
		h21.6v14.4h1.736c20.27,0,36.699-15.662,36.699-34.98v-779.639C2147.06,2815.453,2130.63,2799.793,2110.36,2799.793z
		 M2108.962,3621.912c-5.129,0-9.289-4.16-9.289-9.291s4.16-9.289,9.289-9.289c5.131,0,9.291,4.158,9.291,9.289
		S2114.093,3621.912,2108.962,3621.912z M2109.087,2846.531c-5.129,0-9.289-4.16-9.289-9.291s4.16-9.289,9.289-9.289
		c5.131,0,9.291,4.158,9.291,9.289S2114.218,2846.531,2109.087,2846.531z"/>
	<path fill="#FFFFFF" stroke="#000000" stroke-width="0.25" stroke-miterlimit="10" d="M2065.423,2814.193v-14.4h-1.734
		c-20.27,0-36.701,15.662-36.701,34.98v779.639c0,19.32,16.432,34.98,36.701,34.98h1.734v-14.4h21.602v-820.799H2065.423z
		 M2065.026,2827.062c5.131,0,9.289,4.158,9.289,9.289s-4.158,9.291-9.289,9.291s-9.291-4.16-9.291-9.291
		S2059.896,2827.062,2065.026,2827.062z M2065.079,3621.145c-5.129,0-9.289-4.16-9.289-9.291s4.16-9.289,9.289-9.289
		c5.131,0,9.289,4.158,9.289,9.289S2070.21,3621.145,2065.079,3621.145z"/>
</g>
<g>
	<path fill="#FFFFFF" stroke="#000000" stroke-width="0.25" stroke-miterlimit="10" d="M2183.767,1950.193
		c-20.27,0-36.699,15.662-36.699,34.98v779.639c0,19.32,16.43,34.98,36.699,34.98h23.336v-849.6H2183.767z M2185.095,2771.689
		c-5.129,0-9.289-4.16-9.289-9.291c0-5.129,4.16-9.289,9.289-9.289c5.131,0,9.291,4.16,9.291,9.289
		C2194.386,2767.529,2190.226,2771.689,2185.095,2771.689z M2185.214,1996.131c-5.131,0-9.289-4.16-9.289-9.291
		s4.158-9.289,9.289-9.289s9.289,4.158,9.289,9.289S2190.345,1996.131,2185.214,1996.131z"/>
	<path fill="#FFFFFF" stroke="#000000" stroke-width="0.25" stroke-miterlimit="10" d="M2230.438,1950.193h-23.336v849.6h23.336
		c20.27,0,36.701-15.66,36.701-34.98v-779.637C2267.14,1965.855,2250.708,1950.193,2230.438,1950.193z M2229.095,1978.428
		c5.131,0,9.291,4.16,9.291,9.289c0,5.131-4.16,9.291-9.291,9.291c-5.129,0-9.289-4.16-9.289-9.291
		C2219.806,1982.588,2223.966,1978.428,2229.095,1978.428z M2229.161,2772.492c-5.131,0-9.291-4.16-9.291-9.291
		s4.16-9.289,9.291-9.289c5.129,0,9.289,4.158,9.289,9.289S2234.29,2772.492,2229.161,2772.492z"/>
	<path fill="#FFFFFF" stroke="#000000" stroke-width="0.25" stroke-miterlimit="10" d="M2230.438,2799.793h-1.734v14.4h-21.602
		v820.799h21.602v14.4h1.734c20.27,0,36.701-15.662,36.701-34.98v-779.639C2267.14,2815.453,2250.708,2799.793,2230.438,2799.793z
		 M2229.042,3621.912c-5.129,0-9.289-4.16-9.289-9.291s4.16-9.289,9.289-9.289c5.131,0,9.289,4.158,9.289,9.289
		S2234.173,3621.912,2229.042,3621.912z M2229.167,2846.531c-5.129,0-9.289-4.16-9.289-9.291s4.16-9.289,9.289-9.289
		c5.131,0,9.289,4.158,9.289,9.289S2234.298,2846.531,2229.167,2846.531z"/>
	<path fill="#FFFFFF" stroke="#000000" stroke-width="0.25" stroke-miterlimit="10" d="M2185.503,2814.193v-14.4h-1.736
		c-20.27,0-36.699,15.662-36.699,34.98v779.639c0,19.32,16.43,34.98,36.699,34.98h1.736v-14.4h21.6v-820.799H2185.503z
		 M2185.106,2827.062c5.129,0,9.289,4.158,9.289,9.289s-4.16,9.291-9.289,9.291c-5.131,0-9.291-4.16-9.291-9.291
		S2179.976,2827.062,2185.106,2827.062z M2185.159,3621.145c-5.131,0-9.289-4.16-9.289-9.291s4.158-9.289,9.289-9.289
		s9.289,4.158,9.289,9.289S2190.29,3621.145,2185.159,3621.145z"/>
</g>
<g>
	<path fill="#FFFFFF" stroke="#000000" stroke-width="0.25" stroke-miterlimit="10" d="M2303.847,1950.193
		c-20.27,0-36.699,15.662-36.699,34.98v779.639c0,19.32,16.43,34.98,36.699,34.98h23.336v-849.6H2303.847z M2305.175,2771.689
		c-5.131,0-9.289-4.16-9.289-9.291c0-5.129,4.158-9.289,9.289-9.289s9.289,4.16,9.289,9.289
		C2314.464,2767.529,2310.306,2771.689,2305.175,2771.689z M2305.292,1996.131c-5.129,0-9.289-4.16-9.289-9.291
		s4.16-9.289,9.289-9.289c5.131,0,9.291,4.158,9.291,9.289S2310.423,1996.131,2305.292,1996.131z"/>
	<path fill="#FFFFFF" stroke="#000000" stroke-width="0.25" stroke-miterlimit="10" d="M2350.519,1950.193h-23.336v849.6h23.336
		c20.27,0,36.701-15.66,36.701-34.98v-779.637C2387.22,1965.855,2370.788,1950.193,2350.519,1950.193z M2349.175,1978.428
		c5.131,0,9.289,4.16,9.289,9.289c0,5.131-4.158,9.291-9.289,9.291s-9.289-4.16-9.289-9.291
		C2339.886,1982.588,2344.044,1978.428,2349.175,1978.428z M2349.239,2772.492c-5.129,0-9.289-4.16-9.289-9.291
		s4.16-9.289,9.289-9.289c5.131,0,9.289,4.158,9.289,9.289S2354.37,2772.492,2349.239,2772.492z"/>
	<path fill="#FFFFFF" stroke="#000000" stroke-width="0.25" stroke-miterlimit="10" d="M2350.519,2799.793h-1.734v14.4h-21.602
		v820.799h21.602v14.4h1.734c20.27,0,36.701-15.662,36.701-34.98v-779.639C2387.22,2815.453,2370.788,2799.793,2350.519,2799.793z
		 M2349.122,3621.912c-5.131,0-9.289-4.16-9.289-9.291s4.158-9.289,9.289-9.289s9.289,4.158,9.289,9.289
		S2354.253,3621.912,2349.122,3621.912z M2349.247,2846.531c-5.131,0-9.289-4.16-9.289-9.291s4.158-9.289,9.289-9.289
		c5.129,0,9.289,4.158,9.289,9.289S2354.376,2846.531,2349.247,2846.531z"/>
	<path fill="#FFFFFF" stroke="#000000" stroke-width="0.25" stroke-miterlimit="10" d="M2305.583,2814.193v-14.4h-1.736
		c-20.27,0-36.699,15.662-36.699,34.98v779.639c0,19.32,16.43,34.98,36.699,34.98h1.736v-14.4h21.6v-820.799H2305.583z
		 M2305.185,2827.062c5.131,0,9.291,4.158,9.291,9.289s-4.16,9.291-9.291,9.291c-5.129,0-9.289-4.16-9.289-9.291
		S2300.056,2827.062,2305.185,2827.062z M2305.239,3621.145c-5.131,0-9.291-4.16-9.291-9.291s4.16-9.289,9.291-9.289
		c5.129,0,9.289,4.158,9.289,9.289S2310.368,3621.145,2305.239,3621.145z"/>
</g>
<g>
	<path fill="#FFFFFF" stroke="#000000" stroke-width="0.25" stroke-miterlimit="10" d="M2423.925,1950.193
		c-20.268,0-36.699,15.662-36.699,34.98v779.639c0,19.32,16.432,34.98,36.699,34.98h23.338v-849.6H2423.925z M2425.255,2771.689
		c-5.131,0-9.291-4.16-9.291-9.291c0-5.129,4.16-9.289,9.291-9.289c5.129,0,9.289,4.16,9.289,9.289
		C2434.544,2767.529,2430.384,2771.689,2425.255,2771.689z M2425.372,1996.131c-5.131,0-9.289-4.16-9.289-9.291
		s4.158-9.289,9.289-9.289s9.289,4.158,9.289,9.289S2430.503,1996.131,2425.372,1996.131z"/>
	<path fill="#FFFFFF" stroke="#000000" stroke-width="0.25" stroke-miterlimit="10" d="M2470.599,1950.193h-23.336v849.6h23.336
		c20.27,0,36.699-15.66,36.699-34.98v-779.637C2507.298,1965.855,2490.868,1950.193,2470.599,1950.193z M2469.255,1978.428
		c5.129,0,9.289,4.16,9.289,9.289c0,5.131-4.16,9.291-9.289,9.291c-5.131,0-9.291-4.16-9.291-9.291
		C2459.964,1982.588,2464.124,1978.428,2469.255,1978.428z M2469.319,2772.492c-5.131,0-9.289-4.16-9.289-9.291
		s4.158-9.289,9.289-9.289s9.289,4.158,9.289,9.289S2474.45,2772.492,2469.319,2772.492z"/>
	<path fill="#FFFFFF" stroke="#000000" stroke-width="0.25" stroke-miterlimit="10" d="M2470.599,2799.793h-1.736v14.4h-21.6
		v820.799h21.6v14.4h1.736c20.27,0,36.699-15.662,36.699-34.98v-779.639C2507.298,2815.453,2490.868,2799.793,2470.599,2799.793z
		 M2469.2,3621.912c-5.129,0-9.289-4.16-9.289-9.291s4.16-9.289,9.289-9.289c5.131,0,9.291,4.158,9.291,9.289
		S2474.331,3621.912,2469.2,3621.912z M2469.325,2846.531c-5.129,0-9.289-4.16-9.289-9.291s4.16-9.289,9.289-9.289
		c5.131,0,9.291,4.158,9.291,9.289S2474.456,2846.531,2469.325,2846.531z"/>
	<path fill="#FFFFFF" stroke="#000000" stroke-width="0.25" stroke-miterlimit="10" d="M2425.661,2814.193v-14.4h-1.736
		c-20.268,0-36.699,15.662-36.699,34.98v779.639c0,19.32,16.432,34.98,36.699,34.98h1.736v-14.4h21.602v-820.799H2425.661z
		 M2425.265,2827.062c5.129,0,9.289,4.158,9.289,9.289s-4.16,9.291-9.289,9.291c-5.131,0-9.291-4.16-9.291-9.291
		S2420.134,2827.062,2425.265,2827.062z M2425.317,3621.145c-5.129,0-9.289-4.16-9.289-9.291s4.16-9.289,9.289-9.289
		c5.131,0,9.289,4.158,9.289,9.289S2430.448,3621.145,2425.317,3621.145z"/>
</g>
<g>
	<path fill="#FFFFFF" stroke="#000000" stroke-width="0.25" stroke-miterlimit="10" d="M2544.005,1950.193
		c-20.27,0-36.699,15.662-36.699,34.98v779.639c0,19.32,16.43,34.98,36.699,34.98h23.336v-849.6H2544.005z M2545.333,2771.689
		c-5.129,0-9.289-4.16-9.289-9.291c0-5.129,4.16-9.289,9.289-9.289c5.131,0,9.291,4.16,9.291,9.289
		C2554.624,2767.529,2550.464,2771.689,2545.333,2771.689z M2545.452,1996.131c-5.131,0-9.289-4.16-9.289-9.291
		s4.158-9.289,9.289-9.289s9.289,4.158,9.289,9.289S2550.583,1996.131,2545.452,1996.131z"/>
	<path fill="#FFFFFF" stroke="#000000" stroke-width="0.25" stroke-miterlimit="10" d="M2590.677,1950.193h-23.336v849.6h23.336
		c20.27,0,36.701-15.66,36.701-34.98v-779.637C2627.378,1965.855,2610.946,1950.193,2590.677,1950.193z M2589.333,1978.428
		c5.131,0,9.291,4.16,9.291,9.289c0,5.131-4.16,9.291-9.291,9.291c-5.129,0-9.289-4.16-9.289-9.291
		C2580.044,1982.588,2584.204,1978.428,2589.333,1978.428z M2589.399,2772.492c-5.131,0-9.291-4.16-9.291-9.291
		s4.16-9.289,9.291-9.289c5.129,0,9.289,4.158,9.289,9.289S2594.528,2772.492,2589.399,2772.492z"/>
	<path fill="#FFFFFF" stroke="#000000" stroke-width="0.25" stroke-miterlimit="10" d="M2590.677,2799.793h-1.734v14.4h-21.602
		v820.799h21.602v14.4h1.734c20.27,0,36.701-15.662,36.701-34.98v-779.639C2627.378,2815.453,2610.946,2799.793,2590.677,2799.793z
		 M2589.28,3621.912c-5.129,0-9.289-4.16-9.289-9.291s4.16-9.289,9.289-9.289c5.131,0,9.289,4.158,9.289,9.289
		S2594.411,3621.912,2589.28,3621.912z M2589.405,2846.531c-5.129,0-9.289-4.16-9.289-9.291s4.16-9.289,9.289-9.289
		c5.131,0,9.289,4.158,9.289,9.289S2594.536,2846.531,2589.405,2846.531z"/>
	<path fill="#FFFFFF" stroke="#000000" stroke-width="0.25" stroke-miterlimit="10" d="M2545.741,2814.193v-14.4h-1.736
		c-20.27,0-36.699,15.662-36.699,34.98v779.639c0,19.32,16.43,34.98,36.699,34.98h1.736v-14.4h21.6v-820.799H2545.741z
		 M2545.345,2827.062c5.129,0,9.289,4.158,9.289,9.289s-4.16,9.291-9.289,9.291c-5.131,0-9.291-4.16-9.291-9.291
		S2540.214,2827.062,2545.345,2827.062z M2545.397,3621.145c-5.131,0-9.289-4.16-9.289-9.291s4.158-9.289,9.289-9.289
		s9.289,4.158,9.289,9.289S2550.528,3621.145,2545.397,3621.145z"/>
</g>
<g>
	<path fill="#FFFFFF" stroke="#000000" stroke-width="0.25" stroke-miterlimit="10" d="M2664.085,1950.193
		c-20.27,0-36.699,15.662-36.699,34.98v779.639c0,19.32,16.43,34.98,36.699,34.98h23.336v-849.6H2664.085z M2665.413,2771.689
		c-5.129,0-9.289-4.16-9.289-9.291c0-5.129,4.16-9.289,9.289-9.289c5.131,0,9.291,4.16,9.291,9.289
		C2674.704,2767.529,2670.544,2771.689,2665.413,2771.689z M2665.532,1996.131c-5.131,0-9.289-4.16-9.289-9.291
		s4.158-9.289,9.289-9.289s9.289,4.158,9.289,9.289S2670.663,1996.131,2665.532,1996.131z"/>
	<path fill="#FFFFFF" stroke="#000000" stroke-width="0.25" stroke-miterlimit="10" d="M2710.757,1950.193h-23.336v849.6h23.336
		c20.27,0,36.701-15.66,36.701-34.98v-779.637C2747.458,1965.855,2731.026,1950.193,2710.757,1950.193z M2709.413,1978.428
		c5.131,0,9.291,4.16,9.291,9.289c0,5.131-4.16,9.291-9.291,9.291c-5.129,0-9.289-4.16-9.289-9.291
		C2700.124,1982.588,2704.284,1978.428,2709.413,1978.428z M2709.479,2772.492c-5.131,0-9.289-4.16-9.289-9.291
		s4.158-9.289,9.289-9.289c5.129,0,9.289,4.158,9.289,9.289S2714.608,2772.492,2709.479,2772.492z"/>
	<path fill="#FFFFFF" stroke="#000000" stroke-width="0.25" stroke-miterlimit="10" d="M2710.757,2799.793h-1.734v14.4h-21.602
		v820.799h21.602v14.4h1.734c20.27,0,36.701-15.662,36.701-34.98v-779.639C2747.458,2815.453,2731.026,2799.793,2710.757,2799.793z
		 M2709.36,3621.912c-5.129,0-9.289-4.16-9.289-9.291s4.16-9.289,9.289-9.289c5.131,0,9.289,4.158,9.289,9.289
		S2714.491,3621.912,2709.36,3621.912z M2709.485,2846.531c-5.129,0-9.289-4.16-9.289-9.291s4.16-9.289,9.289-9.289
		c5.131,0,9.289,4.158,9.289,9.289S2714.616,2846.531,2709.485,2846.531z"/>
	<path fill="#FFFFFF" stroke="#000000" stroke-width="0.25" stroke-miterlimit="10" d="M2665.821,2814.193v-14.4h-1.736
		c-20.27,0-36.699,15.662-36.699,34.98v779.639c0,19.32,16.43,34.98,36.699,34.98h1.736v-14.4h21.6v-820.799H2665.821z
		 M2665.425,2827.062c5.129,0,9.289,4.158,9.289,9.289s-4.16,9.291-9.289,9.291c-5.131,0-9.291-4.16-9.291-9.291
		S2660.294,2827.062,2665.425,2827.062z M2665.478,3621.145c-5.131,0-9.289-4.16-9.289-9.291s4.158-9.289,9.289-9.289
		s9.289,4.158,9.289,9.289S2670.608,3621.145,2665.478,3621.145z"/>
</g>
<g>
	<path fill="#FFFFFF" stroke="#000000" stroke-width="0.25" stroke-miterlimit="10" d="M2784.167,1950.193
		c-20.27,0-36.701,15.662-36.701,34.98v779.639c0,19.32,16.432,34.98,36.701,34.98h23.336v-849.6H2784.167z M2785.495,2771.689
		c-5.131,0-9.291-4.16-9.291-9.291c0-5.129,4.16-9.289,9.291-9.289c5.129,0,9.289,4.16,9.289,9.289
		C2794.784,2767.529,2790.624,2771.689,2785.495,2771.689z M2785.612,1996.131c-5.129,0-9.289-4.16-9.289-9.291
		s4.16-9.289,9.289-9.289c5.131,0,9.289,4.158,9.289,9.289S2790.743,1996.131,2785.612,1996.131z"/>
	<path fill="#FFFFFF" stroke="#000000" stroke-width="0.25" stroke-miterlimit="10" d="M2830.839,1950.193h-23.336v849.6h23.336
		c20.27,0,36.699-15.66,36.699-34.98v-779.637C2867.538,1965.855,2851.108,1950.193,2830.839,1950.193z M2829.495,1978.428
		c5.129,0,9.289,4.16,9.289,9.289c0,5.131-4.16,9.291-9.289,9.291c-5.131,0-9.291-4.16-9.291-9.291
		C2820.204,1982.588,2824.364,1978.428,2829.495,1978.428z M2829.56,2772.492c-5.131,0-9.289-4.16-9.289-9.291
		s4.158-9.289,9.289-9.289s9.289,4.158,9.289,9.289S2834.69,2772.492,2829.56,2772.492z"/>
	<path fill="#FFFFFF" stroke="#000000" stroke-width="0.25" stroke-miterlimit="10" d="M2830.839,2799.793h-1.736v14.4h-21.6
		v820.799h21.6v14.4h1.736c20.27,0,36.699-15.662,36.699-34.98v-779.639C2867.538,2815.453,2851.108,2799.793,2830.839,2799.793z
		 M2829.44,3621.912c-5.129,0-9.289-4.16-9.289-9.291s4.16-9.289,9.289-9.289c5.131,0,9.291,4.158,9.291,9.289
		S2834.571,3621.912,2829.44,3621.912z M2829.565,2846.531c-5.129,0-9.289-4.16-9.289-9.291s4.16-9.289,9.289-9.289
		c5.131,0,9.291,4.158,9.291,9.289S2834.696,2846.531,2829.565,2846.531z"/>
	<path fill="#FFFFFF" stroke="#000000" stroke-width="0.25" stroke-miterlimit="10" d="M2785.901,2814.193v-14.4h-1.734
		c-20.27,0-36.701,15.662-36.701,34.98v779.639c0,19.32,16.432,34.98,36.701,34.98h1.734v-14.4h21.602v-820.799H2785.901z
		 M2785.505,2827.062c5.131,0,9.289,4.158,9.289,9.289s-4.158,9.291-9.289,9.291s-9.289-4.16-9.289-9.291
		S2780.374,2827.062,2785.505,2827.062z M2785.558,3621.145c-5.129,0-9.289-4.16-9.289-9.291s4.16-9.289,9.289-9.289
		c5.131,0,9.289,4.158,9.289,9.289S2790.688,3621.145,2785.558,3621.145z"/>
</g>
<g>
	<path fill="#FFFFFF" stroke="#000000" stroke-width="0.25" stroke-miterlimit="10" d="M2904.245,1950.193
		c-20.27,0-36.701,15.662-36.701,34.98v779.639c0,19.32,16.432,34.98,36.701,34.98h23.336v-849.6H2904.245z M2905.573,2771.689
		c-5.131,0-9.289-4.16-9.289-9.291c0-5.129,4.158-9.289,9.289-9.289s9.289,4.16,9.289,9.289
		C2914.862,2767.529,2910.704,2771.689,2905.573,2771.689z M2905.69,1996.131c-5.129,0-9.289-4.16-9.289-9.291
		s4.16-9.289,9.289-9.289c5.131,0,9.291,4.158,9.291,9.289S2910.821,1996.131,2905.69,1996.131z"/>
	<path fill="#FFFFFF" stroke="#000000" stroke-width="0.25" stroke-miterlimit="10" d="M2950.917,1950.193h-23.336v849.6h23.336
		c20.27,0,36.699-15.66,36.699-34.98v-779.637C2987.616,1965.855,2971.187,1950.193,2950.917,1950.193z M2949.573,1978.428
		c5.131,0,9.289,4.16,9.289,9.289c0,5.131-4.158,9.291-9.289,9.291s-9.289-4.16-9.289-9.291
		C2940.284,1982.588,2944.442,1978.428,2949.573,1978.428z M2949.638,2772.492c-5.129,0-9.289-4.16-9.289-9.291
		s4.16-9.289,9.289-9.289c5.131,0,9.289,4.158,9.289,9.289S2954.769,2772.492,2949.638,2772.492z"/>
	<path fill="#FFFFFF" stroke="#000000" stroke-width="0.25" stroke-miterlimit="10" d="M2950.917,2799.793h-1.736v14.4h-21.6
		v820.799h21.6v14.4h1.736c20.27,0,36.699-15.662,36.699-34.98v-779.639C2987.616,2815.453,2971.187,2799.793,2950.917,2799.793z
		 M2949.521,3621.912c-5.131,0-9.291-4.16-9.291-9.291s4.16-9.289,9.291-9.289c5.129,0,9.289,4.158,9.289,9.289
		S2954.649,3621.912,2949.521,3621.912z M2949.646,2846.531c-5.131,0-9.291-4.16-9.291-9.291s4.16-9.289,9.291-9.289
		c5.129,0,9.289,4.158,9.289,9.289S2954.774,2846.531,2949.646,2846.531z"/>
	<path fill="#FFFFFF" stroke="#000000" stroke-width="0.25" stroke-miterlimit="10" d="M2905.979,2814.193v-14.4h-1.734
		c-20.27,0-36.701,15.662-36.701,34.98v779.639c0,19.32,16.432,34.98,36.701,34.98h1.734v-14.4h21.602v-820.799H2905.979z
		 M2905.583,2827.062c5.131,0,9.289,4.158,9.289,9.289s-4.158,9.291-9.289,9.291c-5.129,0-9.289-4.16-9.289-9.291
		S2900.454,2827.062,2905.583,2827.062z M2905.636,3621.145c-5.129,0-9.289-4.16-9.289-9.291s4.16-9.289,9.289-9.289
		c5.131,0,9.291,4.158,9.291,9.289S2910.767,3621.145,2905.636,3621.145z"/>
</g>
<g>
	<path fill="#FFFFFF" stroke="#000000" stroke-width="0.25" stroke-miterlimit="10" d="M3024.325,1950.193
		c-20.27,0-36.701,15.662-36.701,34.98v779.639c0,19.32,16.432,34.98,36.701,34.98h23.336v-849.6H3024.325z M3025.651,2771.689
		c-5.129,0-9.289-4.16-9.289-9.291c0-5.129,4.16-9.289,9.289-9.289c5.131,0,9.291,4.16,9.291,9.289
		C3034.942,2767.529,3030.782,2771.689,3025.651,2771.689z M3025.771,1996.131c-5.129,0-9.289-4.16-9.289-9.291
		s4.16-9.289,9.289-9.289c5.131,0,9.289,4.158,9.289,9.289S3030.901,1996.131,3025.771,1996.131z"/>
	<path fill="#FFFFFF" stroke="#000000" stroke-width="0.25" stroke-miterlimit="10" d="M3070.997,1950.193h-23.336v849.6h23.336
		c20.27,0,36.699-15.66,36.699-34.98v-779.637C3107.696,1965.855,3091.267,1950.193,3070.997,1950.193z M3069.651,1978.428
		c5.131,0,9.291,4.16,9.291,9.289c0,5.131-4.16,9.291-9.291,9.291c-5.129,0-9.289-4.16-9.289-9.291
		C3060.362,1982.588,3064.522,1978.428,3069.651,1978.428z M3069.718,2772.492c-5.131,0-9.289-4.16-9.289-9.291
		s4.158-9.289,9.289-9.289s9.289,4.158,9.289,9.289S3074.849,2772.492,3069.718,2772.492z"/>
	<path fill="#FFFFFF" stroke="#000000" stroke-width="0.25" stroke-miterlimit="10" d="M3070.997,2799.793h-1.736v14.4h-21.6
		v820.799h21.6v14.4h1.736c20.27,0,36.699-15.662,36.699-34.98v-779.639C3107.696,2815.453,3091.267,2799.793,3070.997,2799.793z
		 M3069.599,3621.912c-5.129,0-9.289-4.16-9.289-9.291s4.16-9.289,9.289-9.289c5.131,0,9.291,4.158,9.291,9.289
		S3074.729,3621.912,3069.599,3621.912z M3069.724,2846.531c-5.129,0-9.289-4.16-9.289-9.291s4.16-9.289,9.289-9.289
		c5.131,0,9.291,4.158,9.291,9.289S3074.854,2846.531,3069.724,2846.531z"/>
	<path fill="#FFFFFF" stroke="#000000" stroke-width="0.25" stroke-miterlimit="10" d="M3026.06,2814.193v-14.4h-1.734
		c-20.27,0-36.701,15.662-36.701,34.98v779.639c0,19.32,16.432,34.98,36.701,34.98h1.734v-14.4h21.602v-820.799H3026.06z
		 M3025.663,2827.062c5.131,0,9.289,4.158,9.289,9.289s-4.158,9.291-9.289,9.291s-9.289-4.16-9.289-9.291
		S3020.532,2827.062,3025.663,2827.062z M3025.716,3621.145c-5.129,0-9.289-4.16-9.289-9.291s4.16-9.289,9.289-9.289
		c5.131,0,9.289,4.158,9.289,9.289S3030.847,3621.145,3025.716,3621.145z"/>
</g>
<g>
	<path fill="#FFFFFF" stroke="#000000" stroke-width="0.25" stroke-miterlimit="10" d="M3144.405,1950.193
		c-20.27,0-36.701,15.662-36.701,34.98v779.639c0,19.32,16.432,34.98,36.701,34.98h23.336v-849.6H3144.405z M3145.733,2771.689
		c-5.131,0-9.291-4.16-9.291-9.291c0-5.129,4.16-9.289,9.291-9.289c5.129,0,9.289,4.16,9.289,9.289
		C3155.022,2767.529,3150.862,2771.689,3145.733,2771.689z M3145.851,1996.131c-5.129,0-9.289-4.16-9.289-9.291
		s4.16-9.289,9.289-9.289c5.131,0,9.289,4.158,9.289,9.289S3150.981,1996.131,3145.851,1996.131z"/>
	<path fill="#FFFFFF" stroke="#000000" stroke-width="0.25" stroke-miterlimit="10" d="M3191.075,1950.193h-23.334v849.6h23.334
		c20.271,0,36.701-15.66,36.701-34.98v-779.637C3227.776,1965.855,3211.347,1950.193,3191.075,1950.193z M3189.733,1978.428
		c5.129,0,9.289,4.16,9.289,9.289c0,5.131-4.16,9.291-9.289,9.291c-5.131,0-9.291-4.16-9.291-9.291
		C3180.442,1982.588,3184.603,1978.428,3189.733,1978.428z M3189.798,2772.492c-5.131,0-9.289-4.16-9.289-9.291
		s4.158-9.289,9.289-9.289c5.129,0,9.289,4.158,9.289,9.289S3194.927,2772.492,3189.798,2772.492z"/>
	<path fill="#FFFFFF" stroke="#000000" stroke-width="0.25" stroke-miterlimit="10" d="M3191.075,2799.793h-1.734v14.4h-21.6
		v820.799h21.6v14.4h1.734c20.271,0,36.701-15.662,36.701-34.98v-779.639C3227.776,2815.453,3211.347,2799.793,3191.075,2799.793z
		 M3189.679,3621.912c-5.129,0-9.289-4.16-9.289-9.291s4.16-9.289,9.289-9.289c5.131,0,9.291,4.158,9.291,9.289
		S3194.81,3621.912,3189.679,3621.912z M3189.804,2846.531c-5.129,0-9.289-4.16-9.289-9.291s4.16-9.289,9.289-9.289
		c5.131,0,9.289,4.158,9.289,9.289S3194.935,2846.531,3189.804,2846.531z"/>
	<path fill="#FFFFFF" stroke="#000000" stroke-width="0.25" stroke-miterlimit="10" d="M3146.14,2814.193v-14.4h-1.734
		c-20.27,0-36.701,15.662-36.701,34.98v779.639c0,19.32,16.432,34.98,36.701,34.98h1.734v-14.4h21.602v-820.799H3146.14z
		 M3145.743,2827.062c5.131,0,9.289,4.158,9.289,9.289s-4.158,9.291-9.289,9.291s-9.289-4.16-9.289-9.291
		S3140.612,2827.062,3145.743,2827.062z M3145.796,3621.145c-5.129,0-9.289-4.16-9.289-9.291s4.16-9.289,9.289-9.289
		c5.131,0,9.289,4.158,9.289,9.289S3150.927,3621.145,3145.796,3621.145z"/>
</g>
<g>
	<path fill="#FFFFFF" stroke="#000000" stroke-width="0.25" stroke-miterlimit="10" d="M3264.483,1950.193
		c-20.27,0-36.701,15.662-36.701,34.98v779.639c0,19.32,16.432,34.98,36.701,34.98h23.336v-849.6H3264.483z M3265.812,2771.689
		c-5.131,0-9.289-4.16-9.289-9.291c0-5.129,4.158-9.289,9.289-9.289s9.289,4.16,9.289,9.289
		C3275.101,2767.529,3270.942,2771.689,3265.812,2771.689z M3265.929,1996.131c-5.129,0-9.289-4.16-9.289-9.291
		s4.16-9.289,9.289-9.289c5.131,0,9.291,4.158,9.291,9.289S3271.06,1996.131,3265.929,1996.131z"/>
	<path fill="#FFFFFF" stroke="#000000" stroke-width="0.25" stroke-miterlimit="10" d="M3311.155,1950.193h-23.336v849.6h23.336
		c20.27,0,36.701-15.66,36.701-34.98v-779.637C3347.856,1965.855,3331.425,1950.193,3311.155,1950.193z M3309.812,1978.428
		c5.131,0,9.289,4.16,9.289,9.289c0,5.131-4.158,9.291-9.289,9.291s-9.289-4.16-9.289-9.291
		C3300.522,1982.588,3304.681,1978.428,3309.812,1978.428z M3309.876,2772.492c-5.129,0-9.289-4.16-9.289-9.291
		s4.16-9.289,9.289-9.289c5.131,0,9.289,4.158,9.289,9.289S3315.007,2772.492,3309.876,2772.492z"/>
	<path fill="#FFFFFF" stroke="#000000" stroke-width="0.25" stroke-miterlimit="10" d="M3311.155,2799.793h-1.736v14.4h-21.6
		v820.799h21.6v14.4h1.736c20.27,0,36.701-15.662,36.701-34.98v-779.639C3347.856,2815.453,3331.425,2799.793,3311.155,2799.793z
		 M3309.759,3621.912c-5.131,0-9.291-4.16-9.291-9.291s4.16-9.289,9.291-9.289c5.129,0,9.289,4.158,9.289,9.289
		S3314.888,3621.912,3309.759,3621.912z M3309.884,2846.531c-5.131,0-9.291-4.16-9.291-9.291s4.16-9.289,9.291-9.289
		c5.129,0,9.289,4.158,9.289,9.289S3315.013,2846.531,3309.884,2846.531z"/>
	<path fill="#FFFFFF" stroke="#000000" stroke-width="0.25" stroke-miterlimit="10" d="M3266.218,2814.193v-14.4h-1.734
		c-20.27,0-36.701,15.662-36.701,34.98v779.639c0,19.32,16.432,34.98,36.701,34.98h1.734v-14.4h21.602v-820.799H3266.218z
		 M3265.821,2827.062c5.131,0,9.289,4.158,9.289,9.289s-4.158,9.291-9.289,9.291c-5.129,0-9.289-4.16-9.289-9.291
		S3260.692,2827.062,3265.821,2827.062z M3265.874,3621.145c-5.129,0-9.289-4.16-9.289-9.291s4.16-9.289,9.289-9.289
		c5.131,0,9.291,4.158,9.291,9.289S3271.005,3621.145,3265.874,3621.145z"/>
</g>
<g>
	<path fill="#FFFFFF" stroke="#000000" stroke-width="0.25" stroke-miterlimit="10" d="M3384.563,1950.193
		c-20.27,0-36.701,15.662-36.701,34.98v779.639c0,19.32,16.432,34.98,36.701,34.98h23.336v-849.6H3384.563z M3385.89,2771.689
		c-5.129,0-9.289-4.16-9.289-9.291c0-5.129,4.16-9.289,9.289-9.289c5.131,0,9.291,4.16,9.291,9.289
		C3395.181,2767.529,3391.021,2771.689,3385.89,2771.689z M3386.009,1996.131c-5.129,0-9.289-4.16-9.289-9.291
		s4.16-9.289,9.289-9.289c5.131,0,9.289,4.158,9.289,9.289S3391.14,1996.131,3386.009,1996.131z"/>
	<path fill="#FFFFFF" stroke="#000000" stroke-width="0.25" stroke-miterlimit="10" d="M3431.235,1950.193h-23.336v849.6h23.336
		c20.27,0,36.699-15.66,36.699-34.98v-779.637C3467.935,1965.855,3451.505,1950.193,3431.235,1950.193z M3429.89,1978.428
		c5.131,0,9.291,4.16,9.291,9.289c0,5.131-4.16,9.291-9.291,9.291c-5.129,0-9.289-4.16-9.289-9.291
		C3420.601,1982.588,3424.761,1978.428,3429.89,1978.428z M3429.956,2772.492c-5.131,0-9.289-4.16-9.289-9.291
		s4.158-9.289,9.289-9.289s9.289,4.158,9.289,9.289S3435.087,2772.492,3429.956,2772.492z"/>
	<path fill="#FFFFFF" stroke="#000000" stroke-width="0.25" stroke-miterlimit="10" d="M3431.235,2799.793h-1.736v14.4h-21.6
		v820.799h21.6v14.4h1.736c20.27,0,36.699-15.662,36.699-34.98v-779.639C3467.935,2815.453,3451.505,2799.793,3431.235,2799.793z
		 M3429.837,3621.912c-5.129,0-9.289-4.16-9.289-9.291s4.16-9.289,9.289-9.289c5.131,0,9.291,4.158,9.291,9.289
		S3434.968,3621.912,3429.837,3621.912z M3429.962,2846.531c-5.129,0-9.289-4.16-9.289-9.291s4.16-9.289,9.289-9.289
		c5.131,0,9.291,4.158,9.291,9.289S3435.093,2846.531,3429.962,2846.531z"/>
	<path fill="#FFFFFF" stroke="#000000" stroke-width="0.25" stroke-miterlimit="10" d="M3386.298,2814.193v-14.4h-1.734
		c-20.27,0-36.701,15.662-36.701,34.98v779.639c0,19.32,16.432,34.98,36.701,34.98h1.734v-14.4h21.602v-820.799H3386.298z
		 M3385.901,2827.062c5.131,0,9.289,4.158,9.289,9.289s-4.158,9.291-9.289,9.291s-9.289-4.16-9.289-9.291
		S3380.771,2827.062,3385.901,2827.062z M3385.954,3621.145c-5.131,0-9.289-4.16-9.289-9.291s4.158-9.289,9.289-9.289
		s9.289,4.158,9.289,9.289S3391.085,3621.145,3385.954,3621.145z"/>
</g>
<g>
	<path fill="#FFFFFF" stroke="#000000" stroke-width="0.25" stroke-miterlimit="10" d="M3504.644,1950.193
		c-20.27,0-36.701,15.662-36.701,34.98v779.639c0,19.32,16.432,34.98,36.701,34.98h23.336v-849.6H3504.644z M3505.972,2771.689
		c-5.131,0-9.291-4.16-9.291-9.291c0-5.129,4.16-9.289,9.291-9.289c5.129,0,9.289,4.16,9.289,9.289
		C3515.261,2767.529,3511.101,2771.689,3505.972,2771.689z M3506.089,1996.131c-5.129,0-9.289-4.16-9.289-9.291
		s4.16-9.289,9.289-9.289c5.131,0,9.289,4.158,9.289,9.289S3511.22,1996.131,3506.089,1996.131z"/>
	<path fill="#FFFFFF" stroke="#000000" stroke-width="0.25" stroke-miterlimit="10" d="M3551.313,1950.193h-23.334v849.6h23.334
		c20.271,0,36.701-15.66,36.701-34.98v-779.637C3588.015,1965.855,3571.585,1950.193,3551.313,1950.193z M3549.972,1978.428
		c5.129,0,9.289,4.16,9.289,9.289c0,5.131-4.16,9.291-9.289,9.291c-5.131,0-9.291-4.16-9.291-9.291
		C3540.681,1982.588,3544.841,1978.428,3549.972,1978.428z M3550.036,2772.492c-5.131,0-9.289-4.16-9.289-9.291
		s4.158-9.289,9.289-9.289c5.129,0,9.289,4.158,9.289,9.289S3555.165,2772.492,3550.036,2772.492z"/>
	<path fill="#FFFFFF" stroke="#000000" stroke-width="0.25" stroke-miterlimit="10" d="M3551.313,2799.793h-1.734v14.4h-21.6
		v820.799h21.6v14.4h1.734c20.271,0,36.701-15.662,36.701-34.98v-779.639C3588.015,2815.453,3571.585,2799.793,3551.313,2799.793z
		 M3549.917,3621.912c-5.129,0-9.289-4.16-9.289-9.291s4.16-9.289,9.289-9.289c5.131,0,9.291,4.158,9.291,9.289
		S3555.048,3621.912,3549.917,3621.912z M3550.042,2846.531c-5.129,0-9.289-4.16-9.289-9.291s4.16-9.289,9.289-9.289
		c5.131,0,9.289,4.158,9.289,9.289S3555.173,2846.531,3550.042,2846.531z"/>
	<path fill="#FFFFFF" stroke="#000000" stroke-width="0.25" stroke-miterlimit="10" d="M3506.378,2814.193v-14.4h-1.734
		c-20.27,0-36.701,15.662-36.701,34.98v779.639c0,19.32,16.432,34.98,36.701,34.98h1.734v-14.4h21.602v-820.799H3506.378z
		 M3505.981,2827.062c5.131,0,9.289,4.158,9.289,9.289s-4.158,9.291-9.289,9.291s-9.289-4.16-9.289-9.291
		S3500.851,2827.062,3505.981,2827.062z M3506.034,3621.145c-5.129,0-9.289-4.16-9.289-9.291s4.16-9.289,9.289-9.289
		c5.131,0,9.289,4.158,9.289,9.289S3511.165,3621.145,3506.034,3621.145z"/>
</g>
<g>
	<g>
		<path fill="#FFFFFF" stroke="#000000" stroke-width="0.25" stroke-miterlimit="10" d="M8.7,1653.08
			c0,20.27,15.662,36.701,34.98,36.701H823.32c19.32,0,34.98-16.432,34.98-36.701v-23.336H8.7V1653.08z M830.197,1651.752
			c0,5.131-4.16,9.289-9.291,9.289c-5.13,0-9.29-4.158-9.29-9.289s4.16-9.289,9.29-9.289
			C826.037,1642.463,830.197,1646.621,830.197,1651.752z M54.637,1651.635c0,5.129-4.16,9.289-9.291,9.289
			c-5.13,0-9.289-4.16-9.289-9.289c0-5.131,4.159-9.291,9.289-9.291C50.477,1642.344,54.637,1646.504,54.637,1651.635z"/>
		<path fill="#FFFFFF" stroke="#000000" stroke-width="0.25" stroke-miterlimit="10" d="M8.7,1606.408v23.336h849.6v-23.336
			c0-20.27-15.66-36.701-34.98-36.701H43.683C24.362,1569.707,8.7,1586.139,8.7,1606.408z M36.935,1607.752
			c0-5.131,4.159-9.289,9.289-9.289c5.131,0,9.291,4.158,9.291,9.289s-4.16,9.289-9.291,9.289
			C41.094,1617.041,36.935,1612.883,36.935,1607.752z M830.998,1607.688c0,5.129-4.16,9.289-9.291,9.289
			c-5.129,0-9.288-4.16-9.288-9.289c0-5.131,4.159-9.289,9.288-9.289C826.837,1598.398,830.998,1602.557,830.998,1607.688z"/>
		<path fill="#FFFFFF" stroke="#000000" stroke-width="0.25" stroke-miterlimit="10" d="M858.3,1606.408v1.736h14.4v21.6H1693.5
			v-21.6h14.4v-1.736c0-20.27-15.662-36.701-34.98-36.701H893.281C873.96,1569.707,858.3,1586.139,858.3,1606.408z
			 M1680.418,1607.805c0,5.131-4.16,9.291-9.291,9.291c-5.129,0-9.289-4.16-9.289-9.291c0-5.129,4.16-9.289,9.289-9.289
			C1676.258,1598.516,1680.418,1602.676,1680.418,1607.805z M905.037,1607.68c0,5.131-4.16,9.291-9.291,9.291
			c-5.129,0-9.289-4.16-9.289-9.291c0-5.129,4.16-9.289,9.289-9.289C900.876,1598.391,905.037,1602.551,905.037,1607.68z"/>
		<path fill="#FFFFFF" stroke="#000000" stroke-width="0.25" stroke-miterlimit="10" d="M872.701,1651.346h-14.4v1.734
			c0,20.27,15.662,36.701,34.98,36.701h779.639c19.32,0,34.98-16.432,34.98-36.701v-1.734h-14.4v-21.602H872.701V1651.346z
			 M885.568,1651.742c0-5.131,4.16-9.289,9.289-9.289c5.131,0,9.291,4.158,9.291,9.289c0,5.129-4.16,9.289-9.291,9.289
			C889.728,1661.031,885.568,1656.871,885.568,1651.742z M1679.65,1651.689c0,5.129-4.16,9.289-9.291,9.289
			c-5.129,0-9.289-4.16-9.289-9.289c0-5.131,4.16-9.291,9.289-9.291C1675.49,1642.398,1679.65,1646.559,1679.65,1651.689z"/>
	</g>
	<g>
		<path fill="#FFFFFF" stroke="#000000" stroke-width="0.25" stroke-miterlimit="10" d="M8.7,1532.999
			c0,20.27,15.662,36.702,34.98,36.702H823.32c19.32,0,34.98-16.433,34.98-36.702v-23.336H8.7V1532.999z M830.197,1531.673
			c0,5.129-4.16,9.289-9.291,9.289c-5.13,0-9.29-4.16-9.29-9.289c0-5.131,4.16-9.291,9.29-9.291
			C826.037,1522.382,830.197,1526.542,830.197,1531.673z M54.637,1531.554c0,5.129-4.16,9.289-9.291,9.289
			c-5.13,0-9.289-4.16-9.289-9.289c0-5.131,4.159-9.289,9.289-9.289C50.477,1522.265,54.637,1526.423,54.637,1531.554z"/>
		<path fill="#FFFFFF" stroke="#000000" stroke-width="0.25" stroke-miterlimit="10" d="M8.7,1486.327v23.336h849.6v-23.336
			c0-20.27-15.66-36.699-34.98-36.699H43.683C24.362,1449.628,8.7,1466.058,8.7,1486.327z M36.935,1487.673
			c0-5.131,4.159-9.291,9.289-9.291c5.131,0,9.291,4.16,9.291,9.291c0,5.129-4.16,9.289-9.291,9.289
			C41.094,1496.962,36.935,1492.802,36.935,1487.673z M830.998,1487.606c0,5.131-4.16,9.289-9.291,9.289
			c-5.129,0-9.288-4.158-9.288-9.289s4.159-9.289,9.288-9.289C826.837,1478.317,830.998,1482.476,830.998,1487.606z"/>
		<path fill="#FFFFFF" stroke="#000000" stroke-width="0.25" stroke-miterlimit="10" d="M858.3,1486.327v1.736h14.4v21.6H1693.5
			v-21.6h14.4v-1.736c0-20.27-15.662-36.699-34.98-36.699H893.281C873.96,1449.628,858.3,1466.058,858.3,1486.327z
			 M1680.418,1487.726c0,5.129-4.16,9.289-9.291,9.289c-5.129,0-9.289-4.16-9.289-9.289c0-5.131,4.16-9.291,9.289-9.291
			C1676.258,1478.435,1680.418,1482.595,1680.418,1487.726z M905.037,1487.601c0,5.129-4.16,9.289-9.291,9.289
			c-5.129,0-9.289-4.16-9.289-9.289c0-5.131,4.16-9.291,9.289-9.291C900.876,1478.31,905.037,1482.47,905.037,1487.601z"/>
		<path fill="#FFFFFF" stroke="#000000" stroke-width="0.25" stroke-miterlimit="10" d="M872.701,1531.265h-14.4v1.734
			c0,20.27,15.662,36.702,34.98,36.702h779.639c19.32,0,34.98-16.433,34.98-36.702v-1.734h-14.4v-21.602H872.701V1531.265z
			 M885.568,1531.661c0-5.131,4.16-9.289,9.289-9.289c5.131,0,9.291,4.158,9.291,9.289s-4.16,9.289-9.291,9.289
			C889.728,1540.95,885.568,1536.792,885.568,1531.661z M1679.65,1531.608c0,5.131-4.16,9.289-9.291,9.289
			c-5.129,0-9.289-4.158-9.289-9.289s4.16-9.289,9.289-9.289C1675.49,1522.319,1679.65,1526.478,1679.65,1531.608z"/>
	</g>
	<g>
		<path fill="#FFFFFF" stroke="#000000" stroke-width="0.25" stroke-miterlimit="10" d="M8.7,1412.919
			c0,20.27,15.662,36.701,34.98,36.701H823.32c19.32,0,34.98-16.432,34.98-36.701v-23.336H8.7V1412.919z M830.197,1411.591
			c0,5.131-4.16,9.291-9.291,9.291c-5.13,0-9.29-4.16-9.29-9.291c0-5.129,4.16-9.289,9.29-9.289
			C826.037,1402.302,830.197,1406.462,830.197,1411.591z M54.637,1411.474c0,5.129-4.16,9.289-9.291,9.289
			c-5.13,0-9.289-4.16-9.289-9.289c0-5.131,4.159-9.289,9.289-9.289C50.477,1402.185,54.637,1406.343,54.637,1411.474z"/>
		<path fill="#FFFFFF" stroke="#000000" stroke-width="0.25" stroke-miterlimit="10" d="M8.7,1366.249v23.334h849.6v-23.334
			c0-20.271-15.66-36.701-34.98-36.701H43.683C24.362,1329.548,8.7,1345.978,8.7,1366.249z M36.935,1367.591
			c0-5.129,4.159-9.289,9.289-9.289c5.131,0,9.291,4.16,9.291,9.289c0,5.131-4.16,9.291-9.291,9.291
			C41.094,1376.882,36.935,1372.722,36.935,1367.591z M830.998,1367.526c0,5.131-4.16,9.289-9.291,9.289
			c-5.129,0-9.288-4.158-9.288-9.289c0-5.129,4.159-9.289,9.288-9.289C826.837,1358.237,830.998,1362.397,830.998,1367.526z"/>
		<path fill="#FFFFFF" stroke="#000000" stroke-width="0.25" stroke-miterlimit="10" d="M858.3,1366.249v1.734h14.4v21.6H1693.5
			v-21.6h14.4v-1.734c0-20.271-15.662-36.701-34.98-36.701H893.281C873.96,1329.548,858.3,1345.978,858.3,1366.249z
			 M1680.418,1367.646c0,5.129-4.16,9.289-9.291,9.289c-5.129,0-9.289-4.16-9.289-9.289c0-5.131,4.16-9.291,9.289-9.291
			C1676.258,1358.354,1680.418,1362.515,1680.418,1367.646z M905.037,1367.521c0,5.129-4.16,9.289-9.291,9.289
			c-5.129,0-9.289-4.16-9.289-9.289c0-5.131,4.16-9.289,9.289-9.289C900.876,1358.231,905.037,1362.39,905.037,1367.521z"/>
		<path fill="#FFFFFF" stroke="#000000" stroke-width="0.25" stroke-miterlimit="10" d="M872.701,1411.185h-14.4v1.734
			c0,20.27,15.662,36.701,34.98,36.701h779.639c19.32,0,34.98-16.432,34.98-36.701v-1.734h-14.4v-21.602H872.701V1411.185z
			 M885.568,1411.581c0-5.131,4.16-9.289,9.289-9.289c5.131,0,9.291,4.158,9.291,9.289s-4.16,9.289-9.291,9.289
			C889.728,1420.87,885.568,1416.712,885.568,1411.581z M1679.65,1411.528c0,5.129-4.16,9.289-9.291,9.289
			c-5.129,0-9.289-4.16-9.289-9.289c0-5.131,4.16-9.289,9.289-9.289C1675.49,1402.239,1679.65,1406.397,1679.65,1411.528z"/>
	</g>
</g>
<path fill="#FFFFFF" stroke="#000000" stroke-width="0.25" stroke-miterlimit="10" d="M421.442,14.269v20.756h-0.503H406.54h-0.682
	V14.269h-13.205v20.756h-0.514h-14.2h-0.87V14.269h-13.205v20.756h-0.525H349.14h-0.859V14.269h-13.205v20.756h-0.537h-14.2h-0.847
	V14.269h-13.205v20.756h-0.548h-14.081h-0.955V14.269H277.5v20.756h-0.56h-14.08h-0.943V14.269h-13.205v20.756h-0.571h-14.081
	h-0.932V14.269h-13.205v20.756h-0.583h-14.081h-0.92V14.269h-13.205v20.756h-0.594h-14.08h-0.909V14.269h-13.205v20.756h-0.605
	h-14.081h-0.897V14.269h-13.205v20.756h-0.498h-14.2h-0.886V14.269h-13.205v20.756h-0.51H90.06h-0.875V14.269H75.98v20.756h-0.521
	h-14.2h-0.863V14.269H47.191v20.756h-0.333H32.459h-0.852V14.269H17.203v0.6v20.156v1057.597v83.513v21.087h14.684v-21.343H47.47
	v21.343h13.205v-21.343h15.583v21.343h13.205v-21.343h15.583v21.343h13.205v-21.343h15.583v21.343h13.205v-21.343h15.583v21.343
	h13.205v-21.343h15.583v21.343h13.205v-21.343h15.583v21.343h13.205v-21.343h15.583v21.343h13.205v-21.343h15.583v21.343h13.205
	v-21.343h15.583v21.343h13.205v-21.343h15.583v21.343h13.205v-21.343h15.583v21.343h13.205v-21.343h15.583v21.343h13.205v-21.343
	h15.583v21.343h14.096v-20.896v-0.704V35.868v-0.514V14.269H421.442z M74.898,422.951V444v628.56h-14.4V444v-21.049V52.715h14.4
	V422.951z M175.766,52.715h14.4V444h-14.4V52.715z M146.949,52.715h14.4V444h-14.4V52.715z M118.132,52.715h14.4V444h-14.4V52.715z
	 M89.314,52.715h14.4V444h-14.4V52.715z M103.715,1072.56h-14.4V722.951h14.4V1072.56z M132.532,1155.56h-14.4V722.951h14.4V1155.56
	z M161.349,1155.56h-14.4V722.951h14.4V1155.56z M190.166,1155.56h-14.4V722.951h14.4V1155.56z M218.983,1155.56h-14.4V722.951h14.4
	V1155.56z M247.8,1155.56h-14.4V722.951h14.4V1155.56z M276.617,1155.56h-14.4V722.951h14.4V1155.56z M414.675,1155.326H287.967
	V704.617h126.708V1155.326z M414.69,476.758v41.078v12.93v45.07v13.099v45.07v13.099v37.654v7.416H104.198v18.572h-10v-238h10v0.02
	H414.69V476.758z"/>
<path fill="#FFFFFF" stroke="#000000" stroke-width="0.25" stroke-miterlimit="10" d="M855.47,40.735v1186.601
	c0,20.27,15.662,36.699,34.98,36.699h779.637c19.321,0,34.983-16.43,34.983-36.699V753.803h-31.182V527.03h31.182V40.735
	c0-20.27-15.662-36.701-34.983-36.701H890.45C871.132,4.034,855.47,20.466,855.47,40.735z M1677.437,1225.975c0,4.971-4.029,9-9,9
	s-9-4.029-9-9s4.029-9,9-9S1677.437,1221.004,1677.437,1225.975z M901.995,1225.975c0,4.971-4.029,9-9,9s-9-4.029-9-9s4.029-9,9-9
	S901.995,1221.004,901.995,1225.975z M1654.896,276.75c0,109.168-88.498,197.666-197.667,197.666
	c-109.168,0-197.666-88.498-197.666-197.666c0-109.169,88.498-197.667,197.666-197.667
	C1566.397,79.083,1654.896,167.581,1654.896,276.75z M1677.437,42.095c0,4.971-4.029,9-9,9s-9-4.029-9-9s4.029-9,9-9
	S1677.437,37.124,1677.437,42.095z M901.995,42.095c0,4.971-4.029,9-9,9s-9-4.029-9-9s4.029-9,9-9S901.995,37.124,901.995,42.095z"
	/>
<path fill="#FFFFFF" stroke="#000000" stroke-width="0.25" stroke-miterlimit="10" d="M2519.759,4.035h-779.635
	c-19.317,0-34.979,16.432-34.979,36.701v1186.6c0,20.27,15.662,36.699,34.979,36.699h779.635c19.32,0,34.982-16.43,34.982-36.699
	V753.803V527.031V40.736C2554.741,20.467,2539.079,4.035,2519.759,4.035z M2518.108,33.096c4.971,0,9,4.029,9,9s-4.029,9-9,9
	s-9-4.029-9-9S2513.138,33.096,2518.108,33.096z M1742.669,1234.975c-4.971,0-9-4.029-9-9s4.029-9,9-9s9,4.029,9,9
	S1747.64,1234.975,1742.669,1234.975z M1742.669,51.096c-4.971,0-9-4.029-9-9s4.029-9,9-9s9,4.029,9,9
	S1747.64,51.096,1742.669,51.096z M2518.108,1234.975c-4.971,0-9-4.029-9-9s4.029-9,9-9s9,4.029,9,9
	S2523.079,1234.975,2518.108,1234.975z"/>
<g>
	<polygon fill="#FFFFFF" stroke="#000000" stroke-width="0.25" stroke-miterlimit="10" points="840.338,14.269 840.338,35.611 
		824.755,35.611 824.755,14.269 811.55,14.269 811.55,35.611 795.966,35.611 795.966,14.269 782.761,14.269 782.761,35.611 
		767.178,35.611 767.178,14.269 753.973,14.269 753.973,35.611 738.39,35.611 738.39,14.269 725.185,14.269 725.185,35.611 
		709.601,35.611 709.601,14.269 696.396,14.269 696.396,35.611 680.812,35.611 680.812,14.269 667.607,14.269 667.607,35.611 
		652.024,35.611 652.024,14.269 638.819,14.269 638.819,35.611 623.235,35.611 623.235,14.269 610.03,14.269 610.03,35.611 
		594.447,35.611 594.447,14.269 581.242,14.269 581.242,35.611 565.658,35.611 565.658,14.269 552.453,14.269 552.453,35.611 
		536.87,35.611 536.87,14.269 523.665,14.269 523.665,35.611 508.082,35.611 508.082,14.269 494.876,14.269 494.876,35.611 
		479.293,35.611 479.293,14.269 466.088,14.269 466.088,35.611 450.504,35.611 450.504,14.269 435.82,14.269 435.82,35.355 
		435.82,118.868 435.82,1176.465 435.82,1196.621 435.82,1197.221 450.226,1197.221 450.226,1176.465 451.077,1176.465 
		465.477,1176.465 465.809,1176.465 465.809,1197.221 479.014,1197.221 479.014,1176.465 479.877,1176.465 494.077,1176.465 
		494.598,1176.465 494.598,1197.221 507.803,1197.221 507.803,1176.465 508.677,1176.465 522.876,1176.465 523.386,1176.465 
		523.386,1197.221 536.591,1197.221 536.591,1176.465 537.477,1176.465 551.677,1176.465 552.174,1176.465 552.174,1197.221 
		565.379,1197.221 565.379,1176.465 566.277,1176.465 580.357,1176.465 580.963,1176.465 580.963,1197.221 594.168,1197.221 
		594.168,1176.465 595.077,1176.465 609.157,1176.465 609.751,1176.465 609.751,1197.221 622.957,1197.221 622.957,1176.465 
		623.877,1176.465 637.958,1176.465 638.54,1176.465 638.54,1197.221 651.745,1197.221 651.745,1176.465 652.677,1176.465 
		666.757,1176.465 667.329,1176.465 667.329,1197.221 680.534,1197.221 680.534,1176.465 681.477,1176.465 695.557,1176.465 
		696.117,1176.465 696.117,1197.221 709.322,1197.221 709.322,1176.465 710.277,1176.465 724.357,1176.465 724.906,1176.465 
		724.906,1197.221 738.111,1197.221 738.111,1176.465 738.958,1176.465 753.157,1176.465 753.694,1176.465 753.694,1197.221 
		766.899,1197.221 766.899,1176.465 767.758,1176.465 781.957,1176.465 782.482,1176.465 782.482,1197.221 795.688,1197.221 
		795.688,1176.465 796.558,1176.465 810.757,1176.465 811.271,1176.465 811.271,1197.221 824.476,1197.221 824.476,1176.465 
		825.158,1176.465 839.557,1176.465 840.06,1176.465 840.06,1197.221 854.434,1197.221 854.434,1176.135 854.434,1175.621 
		854.434,35.868 854.434,35.164 854.434,14.269 	"/>
	<g>
		<circle fill="#FFFFFF" stroke="#000000" stroke-width="0.25" stroke-miterlimit="10" cx="762.056" cy="864.06" r="6.377"/>
		<circle fill="#FFFFFF" stroke="#000000" stroke-width="0.25" stroke-miterlimit="10" cx="762.056" cy="577.493" r="6.378"/>
		<circle fill="#FFFFFF" stroke="#000000" stroke-width="0.25" stroke-miterlimit="10" cx="762.056" cy="630.201" r="6.378"/>
		<circle fill="#FFFFFF" stroke="#000000" stroke-width="0.25" stroke-miterlimit="10" cx="762.056" cy="343.635" r="6.378"/>
		<circle fill="#FFFFFF" stroke="#000000" stroke-width="0.25" stroke-miterlimit="10" cx="762.056" cy="298.515" r="6.378"/>
		<circle fill="#FFFFFF" stroke="#000000" stroke-width="0.25" stroke-miterlimit="10" cx="645.127" cy="1029.903" r="116.929"/>
		<circle fill="#FFFFFF" stroke="#000000" stroke-width="0.25" stroke-miterlimit="10" cx="645.127" cy="747.13" r="116.929"/>
		<circle fill="#FFFFFF" stroke="#000000" stroke-width="0.25" stroke-miterlimit="10" cx="645.127" cy="460.563" r="116.929"/>
		<circle fill="#FFFFFF" stroke="#000000" stroke-width="0.25" stroke-miterlimit="10" cx="762.056" cy="912.974" r="6.378"/>
		<circle fill="#FFFFFF" stroke="#000000" stroke-width="0.25" stroke-miterlimit="10" cx="762.056" cy="64.656" r="6.378"/>
		<circle fill="#FFFFFF" stroke="#000000" stroke-width="0.25" stroke-miterlimit="10" cx="762.056" cy="1146.833" r="6.378"/>
		<circle fill="#FFFFFF" stroke="#000000" stroke-width="0.25" stroke-miterlimit="10" cx="528.198" cy="912.974" r="6.378"/>
		<circle fill="#FFFFFF" stroke="#000000" stroke-width="0.25" stroke-miterlimit="10" cx="528.198" cy="864.06" r="6.377"/>
		<circle fill="#FFFFFF" stroke="#000000" stroke-width="0.25" stroke-miterlimit="10" cx="528.198" cy="630.201" r="6.378"/>
		<circle fill="#FFFFFF" stroke="#000000" stroke-width="0.25" stroke-miterlimit="10" cx="645.127" cy="181.585" r="116.929"/>
		<circle fill="#FFFFFF" stroke="#000000" stroke-width="0.25" stroke-miterlimit="10" cx="528.198" cy="1146.833" r="6.378"/>
		<circle fill="#FFFFFF" stroke="#000000" stroke-width="0.25" stroke-miterlimit="10" cx="528.198" cy="64.656" r="6.378"/>
		<circle fill="#FFFFFF" stroke="#000000" stroke-width="0.25" stroke-miterlimit="10" cx="528.198" cy="577.493" r="6.378"/>
		<circle fill="#FFFFFF" stroke="#000000" stroke-width="0.25" stroke-miterlimit="10" cx="528.198" cy="298.515" r="6.378"/>
		<circle fill="#FFFFFF" stroke="#000000" stroke-width="0.25" stroke-miterlimit="10" cx="528.198" cy="343.635" r="6.378"/>
	</g>
</g>
<g>
	<circle fill="#FFFFFF" stroke="#000000" stroke-width="0.25" stroke-miterlimit="10" cx="418.74" cy="52.931" r="4.04"/>
	<circle fill="#FFFFFF" stroke="#000000" stroke-width="0.25" stroke-miterlimit="10" cx="418.776" cy="444.215" r="4.039"/>
	<circle fill="#FFFFFF" stroke="#000000" stroke-width="0.25" stroke-miterlimit="10" cx="235.74" cy="52.931" r="4.04"/>
	<circle fill="#FFFFFF" stroke="#000000" stroke-width="0.25" stroke-miterlimit="10" cx="206.745" cy="376.184" r="4.04"/>
	<path fill="#FFFFFF" stroke="#000000" stroke-width="0.25" stroke-miterlimit="10" d="M222.902,376.184
		c0,8.922-7.232,16.156-16.157,16.156v51.875h195.838c0-8.924,7.234-16.158,16.156-16.158c0.013,0,0.024,0.002,0.037,0.002V69.086
		c-0.013,0-0.024,0.002-0.037,0.002c-8.922,0-16.156-7.234-16.156-16.156c0-0.001,0-0.001,0-0.001H251.897c0,0,0,0,0,0.001
		c0,8.922-7.232,16.156-16.158,16.156c-8.922,0-16.156-7.234-16.156-16.156c0-0.001,0-0.001,0-0.001h-12.838v307.095
		C215.67,360.027,222.902,367.261,222.902,376.184z"/>
</g>
<text transform="matrix(1 0 0 1 18.2363 1246.6465)" font-family="'MyriadPro-Regular'" font-size="12">15 notches</text>
<text transform="matrix(1 0 0 1 22.2896 1257.1172)" font-family="'MyriadPro-Regular'" font-size="12">14 no notch</text>
</svg>
