<?xml version="1.0" encoding="utf-8"?>
<!-- Generator: Adobe Illustrator 15.1.0, SVG Export Plug-In . SVG Version: 6.00 Build 0)  -->
<!DOCTYPE svg PUBLIC "-//W3C//DTD SVG 1.1//EN" "http://www.w3.org/Graphics/SVG/1.1/DTD/svg11.dtd">
<svg version="1.1" id="Layer_1" xmlns="http://www.w3.org/2000/svg" xmlns:xlink="http://www.w3.org/1999/xlink" x="0px" y="0px"
	 width="3456px" height="1728px" viewBox="0 0 3456 1728" enable-background="new 0 0 3456 1728" xml:space="preserve">
<path fill="#FFFFFF" stroke="#000000" stroke-width="0.25" stroke-miterlimit="10" d="M421.442,13v20.756h-0.503H406.54h-0.682V13
	h-13.205v20.756h-0.516h-14.198h-0.87V13h-13.205v20.756h-0.525H349.14h-0.857V13h-13.205v20.756h-0.537h-14.2h-0.847V13h-13.205
	v20.756h-0.548h-14.081h-0.955V13H277.5v20.756h-0.56h-14.08h-0.943V13h-13.205v20.756h-0.571H234.06h-0.932V13h-13.205v20.756
	h-0.583h-14.081h-0.92V13h-13.205v20.756h-0.594h-14.08h-0.909V13h-13.205v20.756h-0.605H147.66h-0.897V13h-13.205v20.756h-0.498
	h-14.2h-0.886V13h-13.205v20.756h-0.51H90.06h-0.875V13H75.98v20.756h-0.521h-14.2h-0.863V13H47.191v20.756h-0.333H32.459h-0.852V13
	H17.203v0.6v20.156v1057.598v83.513v21.087h14.684v-21.343H47.47v21.343h13.205v-21.343h15.583v21.343h13.205v-21.343h15.583v21.343
	h13.205v-21.343h15.583v21.343h13.205v-21.343h15.583v21.343h13.205v-21.343h15.583v21.343h13.205v-21.343h15.583v21.343h13.205
	v-21.343h15.583v21.343h13.205v-21.343h15.583v21.343h13.205v-21.343h15.583v21.343h13.203v-21.343h15.583v21.343h13.205v-21.343
	h15.583v21.343h13.205v-21.343h15.583v21.343h13.205v-21.343h15.583v21.343h14.096v-20.896v-0.703V34.599v-0.514V13H421.442z
	 M74.898,421.682v21.05v628.56h-14.4v-628.56v-21.05V51.446h14.4V421.682z M175.766,51.446h14.4v391.285h-14.4V51.446z
	 M146.949,51.446h14.4v391.285h-14.4V51.446z M118.132,51.446h14.4v391.285h-14.4V51.446z M89.314,51.446h14.4v391.285h-14.4V51.446
	z M103.715,1071.291h-14.4V721.682h14.4V1071.291z M132.532,1154.291h-14.4V721.682h14.4V1154.291z M161.349,1154.291h-14.4V721.682
	h14.4V1154.291z M190.166,1154.291h-14.4V721.682h14.4V1154.291z M218.983,1154.291h-14.4V721.682h14.4V1154.291z M247.8,1154.291
	h-14.4V721.682h14.4V1154.291z M276.617,1154.291h-14.4V721.682h14.4V1154.291z M414.675,1154.057H287.967V703.348h126.708V1154.057
	L414.675,1154.057z M414.69,475.489v41.078v12.93v45.07v13.099v45.07v13.099v37.654v7.416H104.198v18.571h-10v-238h10v0.021H414.69
	V475.489z"/>
<path fill="#FFFFFF" stroke="#000000" stroke-width="0.25" stroke-miterlimit="10" d="M855.47,49.701v1186.601
	c0,20.271,15.662,36.699,34.98,36.699h779.637c19.321,0,34.983-16.431,34.983-36.699V762.769h-31.184V535.996h31.184V49.701
	c0-20.27-15.662-36.701-34.983-36.701H890.45C871.132,13,855.47,29.432,855.47,49.701z M1677.438,1234.939c0,4.973-4.028,9-9,9
	s-9-4.027-9-9c0-4.971,4.028-9,9-9C1673.408,1225.939,1677.438,1229.97,1677.438,1234.939z M901.995,1234.939c0,4.973-4.029,9-9,9
	c-4.972,0-9-4.027-9-9c0-4.971,4.028-9,9-9C897.966,1225.939,901.995,1229.97,901.995,1234.939z M1654.896,285.716
	c0,109.168-88.498,197.666-197.668,197.666c-109.168,0-197.666-88.498-197.666-197.666c0-109.169,88.498-197.667,197.666-197.667
	S1654.896,176.547,1654.896,285.716z M1677.438,51.061c0,4.971-4.028,9-9,9s-9-4.029-9-9s4.028-9,9-9
	C1673.408,42.061,1677.438,46.09,1677.438,51.061z M901.995,51.061c0,4.971-4.029,9-9,9c-4.972,0-9-4.029-9-9s4.028-9,9-9
	C897.966,42.061,901.995,46.09,901.995,51.061z"/>
<path fill="#FFFFFF" stroke="#000000" stroke-width="0.25" stroke-miterlimit="10" d="M2519.759,13h-779.635
	c-19.317,0-34.979,16.432-34.979,36.701v1186.601c0,20.271,15.662,36.699,34.979,36.699h779.635
	c19.32,0,34.982-16.432,34.982-36.699V762.768V535.996V49.701C2554.741,29.432,2539.079,13,2519.759,13z M2518.107,42.061
	c4.972,0,9,4.029,9,9s-4.028,9-9,9s-9-4.029-9-9S2513.138,42.061,2518.107,42.061z M1742.669,1243.939c-4.971,0-9-4.028-9-9
	c0-4.971,4.029-9,9-9s9,4.029,9,9C1751.669,1239.911,1747.641,1243.939,1742.669,1243.939z M1742.669,60.061c-4.971,0-9-4.029-9-9
	s4.029-9,9-9s9,4.029,9,9S1747.641,60.061,1742.669,60.061z M2518.107,1243.939c-4.972,0-9-4.028-9-9c0-4.971,4.028-9,9-9
	s9,4.029,9,9C2527.107,1239.911,2523.079,1243.939,2518.107,1243.939z"/>
<g>
	<polygon fill="#FFFFFF" stroke="#000000" stroke-width="0.25" stroke-miterlimit="10" points="840.338,13 840.338,34.342 
		824.755,34.342 824.755,13 811.55,13 811.55,34.342 795.966,34.342 795.966,13 782.761,13 782.761,34.342 767.178,34.342 
		767.178,13 753.973,13 753.973,34.342 738.39,34.342 738.39,13 725.186,13 725.186,34.342 709.602,34.342 709.602,13 696.396,13 
		696.396,34.342 680.812,34.342 680.812,13 667.607,13 667.607,34.342 652.023,34.342 652.023,13 638.819,13 638.819,34.342 
		623.235,34.342 623.235,13 610.03,13 610.03,34.342 594.447,34.342 594.447,13 581.242,13 581.242,34.342 565.658,34.342 
		565.658,13 552.453,13 552.453,34.342 536.87,34.342 536.87,13 523.665,13 523.665,34.342 508.082,34.342 508.082,13 494.876,13 
		494.876,34.342 479.293,34.342 479.293,13 466.088,13 466.088,34.342 450.504,34.342 450.504,13 435.82,13 435.82,34.086 
		435.82,117.599 435.82,1175.196 435.82,1195.354 435.82,1195.952 450.226,1195.952 450.226,1175.196 451.077,1175.196 
		465.477,1175.196 465.809,1175.196 465.809,1195.952 479.014,1195.952 479.014,1175.196 479.877,1175.196 494.077,1175.196 
		494.598,1175.196 494.598,1195.952 507.803,1195.952 507.803,1175.196 508.677,1175.196 522.876,1175.196 523.386,1175.196 
		523.386,1195.952 536.591,1195.952 536.591,1175.196 537.477,1175.196 551.677,1175.196 552.174,1175.196 552.174,1195.952 
		565.379,1195.952 565.379,1175.196 566.277,1175.196 580.357,1175.196 580.963,1175.196 580.963,1195.952 594.168,1195.952 
		594.168,1175.196 595.077,1175.196 609.157,1175.196 609.751,1175.196 609.751,1195.952 622.957,1195.952 622.957,1175.196 
		623.877,1175.196 637.958,1175.196 638.54,1175.196 638.54,1195.952 651.745,1195.952 651.745,1175.196 652.677,1175.196 
		666.757,1175.196 667.329,1175.196 667.329,1195.952 680.534,1195.952 680.534,1175.196 681.477,1175.196 695.557,1175.196 
		696.117,1175.196 696.117,1195.952 709.322,1195.952 709.322,1175.196 710.277,1175.196 724.357,1175.196 724.906,1175.196 
		724.906,1195.952 738.111,1195.952 738.111,1175.196 738.958,1175.196 753.157,1175.196 753.694,1175.196 753.694,1195.952 
		766.898,1195.952 766.898,1175.196 767.758,1175.196 781.957,1175.196 782.482,1175.196 782.482,1195.952 795.688,1195.952 
		795.688,1175.196 796.558,1175.196 810.757,1175.196 811.271,1175.196 811.271,1195.952 824.477,1195.952 824.477,1175.196 
		825.158,1175.196 839.557,1175.196 840.061,1175.196 840.061,1195.952 854.434,1195.952 854.434,1174.866 854.434,1174.354 
		854.434,34.599 854.434,33.895 854.434,13 	"/>
	<g>
		<circle fill="#FFFFFF" stroke="#000000" stroke-width="0.25" stroke-miterlimit="10" cx="762.056" cy="862.791" r="6.377"/>
		<circle fill="#FFFFFF" stroke="#000000" stroke-width="0.25" stroke-miterlimit="10" cx="762.056" cy="576.224" r="6.378"/>
		<circle fill="#FFFFFF" stroke="#000000" stroke-width="0.25" stroke-miterlimit="10" cx="762.056" cy="628.932" r="6.378"/>
		<circle fill="#FFFFFF" stroke="#000000" stroke-width="0.25" stroke-miterlimit="10" cx="762.056" cy="342.366" r="6.378"/>
		<circle fill="#FFFFFF" stroke="#000000" stroke-width="0.25" stroke-miterlimit="10" cx="762.056" cy="297.246" r="6.378"/>
		<circle fill="#FFFFFF" stroke="#000000" stroke-width="0.25" stroke-miterlimit="10" cx="645.127" cy="1028.634" r="116.93"/>
		<circle fill="#FFFFFF" stroke="#000000" stroke-width="0.25" stroke-miterlimit="10" cx="645.127" cy="745.861" r="116.929"/>
		<circle fill="#FFFFFF" stroke="#000000" stroke-width="0.25" stroke-miterlimit="10" cx="645.127" cy="459.294" r="116.929"/>
		<circle fill="#FFFFFF" stroke="#000000" stroke-width="0.25" stroke-miterlimit="10" cx="762.056" cy="911.705" r="6.378"/>
		<circle fill="#FFFFFF" stroke="#000000" stroke-width="0.25" stroke-miterlimit="10" cx="762.056" cy="63.387" r="6.378"/>
		<circle fill="#FFFFFF" stroke="#000000" stroke-width="0.25" stroke-miterlimit="10" cx="762.056" cy="1145.564" r="6.378"/>
		<circle fill="#FFFFFF" stroke="#000000" stroke-width="0.25" stroke-miterlimit="10" cx="528.198" cy="911.705" r="6.378"/>
		<circle fill="#FFFFFF" stroke="#000000" stroke-width="0.25" stroke-miterlimit="10" cx="528.198" cy="862.791" r="6.377"/>
		<circle fill="#FFFFFF" stroke="#000000" stroke-width="0.25" stroke-miterlimit="10" cx="528.198" cy="628.932" r="6.378"/>
		<circle fill="#FFFFFF" stroke="#000000" stroke-width="0.25" stroke-miterlimit="10" cx="645.127" cy="180.316" r="116.929"/>
		<circle fill="#FFFFFF" stroke="#000000" stroke-width="0.25" stroke-miterlimit="10" cx="528.198" cy="1145.564" r="6.378"/>
		<circle fill="#FFFFFF" stroke="#000000" stroke-width="0.25" stroke-miterlimit="10" cx="528.198" cy="63.387" r="6.378"/>
		<circle fill="#FFFFFF" stroke="#000000" stroke-width="0.25" stroke-miterlimit="10" cx="528.198" cy="576.224" r="6.378"/>
		<circle fill="#FFFFFF" stroke="#000000" stroke-width="0.25" stroke-miterlimit="10" cx="528.198" cy="297.246" r="6.378"/>
		<circle fill="#FFFFFF" stroke="#000000" stroke-width="0.25" stroke-miterlimit="10" cx="528.198" cy="342.366" r="6.378"/>
	</g>
</g>
<g>
	<circle fill="#FFFFFF" stroke="#000000" stroke-width="0.25" stroke-miterlimit="10" cx="418.741" cy="52.807" r="4.04"/>
	<circle fill="#FFFFFF" stroke="#000000" stroke-width="0.25" stroke-miterlimit="10" cx="418.777" cy="444.091" r="4.039"/>
	<circle fill="#FFFFFF" stroke="#000000" stroke-width="0.25" stroke-miterlimit="10" cx="235.741" cy="52.807" r="4.04"/>
	<circle fill="#FFFFFF" stroke="#000000" stroke-width="0.25" stroke-miterlimit="10" cx="206.746" cy="376.061" r="4.04"/>
	<path fill="#FFFFFF" stroke="#000000" stroke-width="0.25" stroke-miterlimit="10" d="M222.902,376.061
		c0,8.922-7.232,16.156-16.157,16.156v51.875h195.838c0-8.924,7.234-16.158,16.156-16.158c0.013,0,0.022,0.002,0.037,0.002V68.962
		c-0.015,0-0.024,0.002-0.037,0.002c-8.922,0-16.156-7.234-16.156-16.156c0-0.001,0-0.001,0-0.001H251.897c0,0,0,0,0,0.001
		c0,8.922-7.232,16.156-16.158,16.156c-8.922,0-16.156-7.234-16.156-16.156c0-0.001,0-0.001,0-0.001h-12.838v307.095
		C215.67,359.903,222.902,367.137,222.902,376.061z"/>
</g>
</svg>
