<?xml version="1.0" encoding="utf-8"?>
<!-- Generator: Adobe Illustrator 15.1.0, SVG Export Plug-In . SVG Version: 6.00 Build 0)  -->
<!DOCTYPE svg PUBLIC "-//W3C//DTD SVG 1.1//EN" "http://www.w3.org/Graphics/SVG/1.1/DTD/svg11.dtd">
<svg version="1.1" id="Layer_1" xmlns="http://www.w3.org/2000/svg" xmlns:xlink="http://www.w3.org/1999/xlink" x="0px" y="0px"
	 width="3456px" height="1728px" viewBox="0 0 3456 1728" enable-background="new 0 0 3456 1728" xml:space="preserve">
<path fill="#FFFFFF" stroke="#000000" stroke-width="0.25" stroke-miterlimit="10" d="M1251.551,27.56H471.916
	c-19.317,0-34.979,16.432-34.979,36.701v1186.602c0,20.27,15.661,36.698,34.979,36.698h779.635c19.32,0,34.982-16.432,34.982-36.698
	V777.328V550.556V64.261C1286.533,43.992,1270.871,27.56,1251.551,27.56z M1249.899,56.621c4.972,0,9,4.029,9,9c0,4.971-4.028,9-9,9
	c-4.973,0-9-4.029-9-9C1240.899,60.65,1244.93,56.621,1249.899,56.621z M474.461,1258.499c-4.971,0-9-4.027-9-9c0-4.971,4.029-9,9-9
	s9,4.029,9,9C483.461,1254.472,479.433,1258.499,474.461,1258.499z M474.461,74.621c-4.971,0-9-4.029-9-9c0-4.971,4.029-9,9-9
	s9,4.029,9,9C483.461,70.592,479.433,74.621,474.461,74.621z M1249.899,1258.499c-4.973,0-9-4.027-9-9c0-4.971,4.027-9,9-9
	c4.972,0,9,4.029,9,9C1258.899,1254.472,1254.871,1258.499,1249.899,1258.499z"/>
<g>
	<polygon fill="#FFFFFF" stroke="#000000" stroke-width="0.25" stroke-miterlimit="10" points="422.841,66.084 422.841,87.426 
		407.258,87.426 407.258,66.084 394.053,66.084 394.053,87.426 378.469,87.426 378.469,66.084 365.264,66.084 365.264,87.426 
		349.681,87.426 349.681,66.084 336.476,66.084 336.476,87.426 320.893,87.426 320.893,66.084 307.688,66.084 307.688,87.426 
		292.104,87.426 292.104,66.084 278.899,66.084 278.899,87.426 263.315,87.426 263.315,66.084 250.11,66.084 250.11,87.426 
		234.526,87.426 234.526,66.084 221.322,66.084 221.322,87.426 205.738,87.426 205.738,66.084 192.533,66.084 192.533,87.426 
		176.95,87.426 176.95,66.084 163.745,66.084 163.745,87.426 148.161,87.426 148.161,66.084 134.956,66.084 134.956,87.426 
		119.373,87.426 119.373,66.084 106.168,66.084 106.168,87.426 90.585,87.426 90.585,66.084 77.379,66.084 77.379,87.426 
		61.796,87.426 61.796,66.084 48.591,66.084 48.591,87.426 33.007,87.426 33.007,66.084 18.323,66.084 18.323,87.17 18.323,170.684 
		18.323,1228.281 18.323,1248.438 18.323,1249.037 32.729,1249.037 32.729,1228.281 33.58,1228.281 47.979,1228.281 
		48.312,1228.281 48.312,1249.037 61.517,1249.037 61.517,1228.281 62.38,1228.281 76.58,1228.281 77.101,1228.281 77.101,1249.037 
		90.306,1249.037 90.306,1228.281 91.18,1228.281 105.379,1228.281 105.889,1228.281 105.889,1249.037 119.094,1249.037 
		119.094,1228.281 119.979,1228.281 134.18,1228.281 134.677,1228.281 134.677,1249.037 147.882,1249.037 147.882,1228.281 
		148.78,1228.281 162.86,1228.281 163.466,1228.281 163.466,1249.037 176.671,1249.037 176.671,1228.281 177.58,1228.281 
		191.66,1228.281 192.254,1228.281 192.254,1249.037 205.46,1249.037 205.46,1228.281 206.38,1228.281 220.461,1228.281 
		221.043,1228.281 221.043,1249.037 234.248,1249.037 234.248,1228.281 235.18,1228.281 249.26,1228.281 249.832,1228.281 
		249.832,1249.037 263.037,1249.037 263.037,1228.281 263.979,1228.281 278.06,1228.281 278.62,1228.281 278.62,1249.037 
		291.825,1249.037 291.825,1228.281 292.78,1228.281 306.86,1228.281 307.409,1228.281 307.409,1249.037 320.614,1249.037 
		320.614,1228.281 321.461,1228.281 335.66,1228.281 336.197,1228.281 336.197,1249.037 349.401,1249.037 349.401,1228.281 
		350.261,1228.281 364.46,1228.281 364.985,1228.281 364.985,1249.037 378.19,1249.037 378.19,1228.281 379.061,1228.281 
		393.26,1228.281 393.774,1228.281 393.774,1249.037 406.979,1249.037 406.979,1228.281 407.661,1228.281 422.06,1228.281 
		422.562,1228.281 422.562,1249.037 436.938,1249.037 436.938,1227.951 436.938,1227.438 436.938,87.684 436.938,86.979 
		436.938,66.084 	"/>
	<g>
		<circle fill="#FFFFFF" stroke="#000000" stroke-width="0.25" stroke-miterlimit="10" cx="344.559" cy="915.875" r="6.377"/>
		<circle fill="#FFFFFF" stroke="#000000" stroke-width="0.25" stroke-miterlimit="10" cx="344.559" cy="629.308" r="6.378"/>
		<circle fill="#FFFFFF" stroke="#000000" stroke-width="0.25" stroke-miterlimit="10" cx="344.559" cy="682.016" r="6.378"/>
		<circle fill="#FFFFFF" stroke="#000000" stroke-width="0.25" stroke-miterlimit="10" cx="344.559" cy="395.451" r="6.378"/>
		<circle fill="#FFFFFF" stroke="#000000" stroke-width="0.25" stroke-miterlimit="10" cx="344.559" cy="350.331" r="6.378"/>
		<circle fill="#FFFFFF" stroke="#000000" stroke-width="0.25" stroke-miterlimit="10" cx="227.63" cy="1081.719" r="116.93"/>
		<circle fill="#FFFFFF" stroke="#000000" stroke-width="0.25" stroke-miterlimit="10" cx="227.63" cy="798.946" r="116.929"/>
		<circle fill="#FFFFFF" stroke="#000000" stroke-width="0.25" stroke-miterlimit="10" cx="227.63" cy="512.378" r="116.929"/>
		<circle fill="#FFFFFF" stroke="#000000" stroke-width="0.25" stroke-miterlimit="10" cx="344.559" cy="964.79" r="6.378"/>
		<circle fill="#FFFFFF" stroke="#000000" stroke-width="0.25" stroke-miterlimit="10" cx="344.559" cy="116.471" r="6.378"/>
		<circle fill="#FFFFFF" stroke="#000000" stroke-width="0.25" stroke-miterlimit="10" cx="344.559" cy="1198.648" r="6.379"/>
		<circle fill="#FFFFFF" stroke="#000000" stroke-width="0.25" stroke-miterlimit="10" cx="110.701" cy="964.79" r="6.378"/>
		<circle fill="#FFFFFF" stroke="#000000" stroke-width="0.25" stroke-miterlimit="10" cx="110.701" cy="915.875" r="6.377"/>
		<circle fill="#FFFFFF" stroke="#000000" stroke-width="0.25" stroke-miterlimit="10" cx="110.701" cy="682.016" r="6.378"/>
		<circle fill="#FFFFFF" stroke="#000000" stroke-width="0.25" stroke-miterlimit="10" cx="227.63" cy="233.4" r="116.929"/>
		<circle fill="#FFFFFF" stroke="#000000" stroke-width="0.25" stroke-miterlimit="10" cx="110.701" cy="1198.648" r="6.379"/>
		<circle fill="#FFFFFF" stroke="#000000" stroke-width="0.25" stroke-miterlimit="10" cx="110.701" cy="116.471" r="6.378"/>
		<circle fill="#FFFFFF" stroke="#000000" stroke-width="0.25" stroke-miterlimit="10" cx="110.701" cy="629.308" r="6.378"/>
		<circle fill="#FFFFFF" stroke="#000000" stroke-width="0.25" stroke-miterlimit="10" cx="110.701" cy="350.331" r="6.378"/>
		<circle fill="#FFFFFF" stroke="#000000" stroke-width="0.25" stroke-miterlimit="10" cx="110.701" cy="395.451" r="6.378"/>
	</g>
</g>
<path fill="#FFFFFF" stroke="#000000" stroke-width="0.25" stroke-miterlimit="10" d="M2136.134,66.085V87.17v0.515v1139.752v0.703
	v20.896h14.097v-21.342h15.582v21.342h13.205v-21.342h15.584v21.342h13.205v-21.342h15.582v21.342h13.205v-21.342h15.584v21.342
	h13.202v-21.342h15.584v21.342h13.205v-21.342h15.582v21.342h13.205v-21.342h15.584v21.342h13.204v-21.342h15.583v21.342h13.205
	v-21.342h15.583v21.342h13.205v-21.342h15.583v21.342h13.205v-21.342h15.583v21.342h13.205v-21.342h15.583v21.342h13.205v-21.342
	h15.583v21.342h13.205v-21.342h15.583v21.342h14.685v-21.086v-83.515V86.841V66.686v-0.601h-14.404v20.756h-0.852h-14.398h-0.334
	V66.085h-13.205v20.756h-0.862h-14.2h-0.521V66.085h-13.205v20.756h-0.875h-14.198h-0.511V66.085h-13.205v20.756h-0.885h-14.201
	h-0.498V66.085h-13.205v20.756h-0.896h-14.082h-0.604V66.085h-13.205v20.756h-0.909h-14.08h-0.594V66.085h-13.205v20.756h-0.92
	h-14.081h-0.583V66.085h-13.205v20.756h-0.933h-14.08h-0.571V66.085h-13.205v20.756h-0.942h-14.08h-0.561V66.085h-13.204v20.756
	h-0.955h-14.081h-0.549V66.085h-13.205v20.756h-0.847h-14.2h-0.537V66.085h-13.205v20.756h-0.856h-14.199h-0.524V66.085h-13.205
	v20.756h-0.87h-14.198h-0.516V66.085h-13.205v20.756h-0.683h-14.398h-0.503V66.085H2136.134z M2497.044,104.531h14.399v370.234
	v21.051v628.559h-14.399V495.816v-21.051V104.531z M2396.177,495.816h-14.399V104.531h14.399V495.816z M2424.993,495.816h-14.4
	V104.531h14.4V495.816z M2453.811,495.816h-14.399V104.531h14.399V495.816z M2482.628,495.816h-14.399V104.531h14.399V495.816z
	 M2468.229,774.767h14.399v349.608h-14.399V774.767z M2439.41,774.767h14.399v432.608h-14.399V774.767z M2410.593,774.767h14.4
	v432.608h-14.4V774.767z M2381.775,774.767h14.4v432.608h-14.4V774.767z M2352.96,774.767h14.399v432.608h-14.399V774.767z
	 M2324.143,774.767h14.399v432.608h-14.399V774.767z M2295.325,774.767h14.399v432.608h-14.399V774.767z M2157.268,1207.141V756.433
	h126.709v450.708H2157.268L2157.268,1207.141z M2157.252,524.582h310.492v-0.021h10v238h-10v-18.57h-310.492v-7.416V698.92v-13.099
	v-45.07v-13.099v-45.07v-12.93v-41.078V524.582z"/>
<circle fill="#FFFFFF" stroke="#000000" stroke-width="0.25" stroke-miterlimit="10" cx="2153.201" cy="105.893" r="4.04"/>
<circle fill="#FFFFFF" stroke="#000000" stroke-width="0.25" stroke-miterlimit="10" cx="2153.165" cy="497.176" r="4.039"/>
<circle fill="#FFFFFF" stroke="#000000" stroke-width="0.25" stroke-miterlimit="10" cx="2336.201" cy="105.893" r="4.04"/>
<circle fill="#FFFFFF" stroke="#000000" stroke-width="0.25" stroke-miterlimit="10" cx="2365.196" cy="429.146" r="4.04"/>
<path fill="#FFFFFF" stroke="#000000" stroke-width="0.25" stroke-miterlimit="10" d="M2104.95,524.556h31.184V64.261
	c0-20.27-15.662-36.701-34.982-36.701h-779.638c-19.317,0-34.979,16.432-34.979,36.701v1186.602
	c0,20.27,15.662,36.698,34.979,36.698h779.638c19.321,0,34.982-16.432,34.982-36.698V797.293v-19.964V744.17h-31.184V550.556
	V524.556z M2099.501,56.621c4.971,0,9,4.029,9,9c0,4.971-4.028,9-9,9s-9-4.029-9-9C2090.501,60.65,2094.529,56.621,2099.501,56.621z
	 M1324.059,1258.499c-4.972,0-9-4.027-9-9c0-4.971,4.028-9,9-9s9,4.031,9,9C1333.059,1254.472,1329.029,1258.499,1324.059,1258.499z
	 M1324.059,74.621c-4.972,0-9-4.029-9-9c0-4.971,4.028-9,9-9s9,4.029,9,9C1333.059,70.592,1329.029,74.621,1324.059,74.621z
	 M1888.292,497.942c-109.168,0-197.666-88.498-197.666-197.667c0-109.169,88.498-197.667,197.666-197.667
	s197.668,88.498,197.668,197.667C2085.96,409.444,1997.462,497.942,1888.292,497.942z M2099.501,1258.499c-4.972,0-9-4.027-9-9
	c0-4.971,4.028-9,9-9c4.971,0,9,4.031,9,9C2108.501,1254.472,2104.473,1258.499,2099.501,1258.499z"/>
<path fill="#FFFFFF" stroke="#000000" stroke-width="0.25" stroke-miterlimit="10" d="M2365.197,407.545V105.893h-7.396
	c0,11.929-9.67,21.6-21.6,21.6s-21.6-9.671-21.6-21.6h-139.837c0,11.929-9.669,21.6-21.599,21.6v348.083
	c11.93,0,21.599,9.671,21.599,21.6h-5.405v0.001h195.838v-46.431c-11.93,0-21.6-9.671-21.6-21.6S2353.268,407.545,2365.197,407.545z
	"/>
<circle fill="#FFFFFF" stroke="#000000" stroke-width="0.25" stroke-miterlimit="10" cx="2082.391" cy="739.057" r="4.04"/>
<circle fill="#FFFFFF" stroke="#000000" stroke-width="0.25" stroke-miterlimit="10" cx="2082.391" cy="674.568" r="4.04"/>
<circle fill="#FFFFFF" stroke="#000000" stroke-width="0.25" stroke-miterlimit="10" cx="1446.69" cy="1174.175" r="4.04"/>
<circle fill="#FFFFFF" stroke="#000000" stroke-width="0.25" stroke-miterlimit="10" cx="1649.368" cy="1174.175" r="4.04"/>
<circle fill="#FFFFFF" stroke="#000000" stroke-width="0.25" stroke-miterlimit="10" cx="2017.872" cy="1174.175" r="4.04"/>
<circle fill="#FFFFFF" stroke="#000000" stroke-width="0.25" stroke-miterlimit="10" cx="1439.604" cy="739.056" r="4.04"/>
</svg>
