<?xml version="1.0" encoding="utf-8"?>
<!-- Generator: Adobe Illustrator 15.1.0, SVG Export Plug-In . SVG Version: 6.00 Build 0)  -->
<!DOCTYPE svg PUBLIC "-//W3C//DTD SVG 1.1//EN" "http://www.w3.org/Graphics/SVG/1.1/DTD/svg11.dtd">
<svg version="1.1" id="Layer_1" xmlns="http://www.w3.org/2000/svg" xmlns:xlink="http://www.w3.org/1999/xlink" x="0px" y="0px"
	 width="3456px" height="1728px" viewBox="0 0 3456 1728" enable-background="new 0 0 3456 1728" xml:space="preserve">
<g>
	<path fill="#FFFFFF" stroke="#000000" stroke-width="0.25" stroke-miterlimit="10" d="M1008.351,12.3
		c-20.27,0-36.7,15.662-36.7,34.979v779.64c0,19.319,16.432,34.979,36.7,34.979h23.337v-849.6L1008.351,12.3L1008.351,12.3z
		 M1009.681,833.796c-5.131,0-9.289-4.16-9.289-9.291c0-5.129,4.158-9.289,9.289-9.289s9.289,4.159,9.289,9.289
		C1018.97,829.636,1014.81,833.796,1009.681,833.796z M1009.797,58.237c-5.129,0-9.288-4.16-9.288-9.291s4.159-9.289,9.288-9.289
		c5.132,0,9.291,4.158,9.291,9.289S1014.929,58.237,1009.797,58.237z"/>
	<path fill="#FFFFFF" stroke="#000000" stroke-width="0.25" stroke-miterlimit="10" d="M1055.023,12.3h-23.337v849.6h23.337
		c20.27,0,36.698-15.66,36.698-34.98V47.282C1091.722,27.962,1075.293,12.3,1055.023,12.3z M1053.681,40.534
		c5.131,0,9.289,4.16,9.289,9.289c0,5.131-4.158,9.291-9.289,9.291s-9.289-4.16-9.289-9.291
		C1044.39,44.694,1048.55,40.534,1053.681,40.534z M1053.744,834.599c-5.129,0-9.289-4.16-9.289-9.291s4.16-9.289,9.289-9.289
		c5.131,0,9.289,4.158,9.289,9.289S1058.875,834.599,1053.744,834.599z"/>
	<path fill="#FFFFFF" stroke="#000000" stroke-width="0.25" stroke-miterlimit="10" d="M1055.023,861.899h-1.736v14.399h-21.6v820.8
		h21.6v14.4h1.736c20.27,0,36.698-15.662,36.698-34.98V896.88C1091.722,877.559,1075.293,861.899,1055.023,861.899z
		 M1053.627,1684.019c-5.131,0-9.291-4.16-9.291-9.291s4.16-9.289,9.291-9.289c5.13,0,9.289,4.158,9.289,9.289
		S1058.756,1684.019,1053.627,1684.019z M1053.752,908.638c-5.131,0-9.291-4.16-9.291-9.291s4.16-9.289,9.291-9.289
		c5.13,0,9.289,4.158,9.289,9.289S1058.881,908.638,1053.752,908.638z"/>
	<path fill="#FFFFFF" stroke="#000000" stroke-width="0.25" stroke-miterlimit="10" d="M1010.086,876.299v-14.399h-1.733
		c-20.271,0-36.701,15.661-36.701,34.98v779.639c0,19.32,16.432,34.98,36.701,34.98h1.733v-14.4h21.603v-820.8H1010.086z
		 M1009.689,889.169c5.131,0,9.288,4.158,9.288,9.289s-4.157,9.291-9.288,9.291c-5.13,0-9.289-4.16-9.289-9.291
		S1004.56,889.169,1009.689,889.169z M1009.742,1683.251c-5.129,0-9.289-4.158-9.289-9.291c0-5.131,4.16-9.289,9.289-9.289
		c5.131,0,9.291,4.158,9.291,9.289C1019.033,1679.093,1014.873,1683.251,1009.742,1683.251z"/>
</g>
<g>
	<path fill="#FFFFFF" stroke="#000000" stroke-width="0.25" stroke-miterlimit="10" d="M1128.431,12.3
		c-20.27,0-36.701,15.662-36.701,34.979v779.64c0,19.319,16.433,34.979,36.701,34.979h23.336v-849.6L1128.431,12.3L1128.431,12.3z
		 M1129.761,833.796c-5.132,0-9.291-4.16-9.291-9.291c0-5.129,4.159-9.289,9.291-9.289c5.129,0,9.289,4.159,9.289,9.289
		C1139.049,829.636,1134.89,833.796,1129.761,833.796z M1129.877,58.237c-5.129,0-9.289-4.16-9.289-9.291s4.16-9.289,9.289-9.289
		c5.132,0,9.289,4.158,9.289,9.289S1135.008,58.237,1129.877,58.237z"/>
	<path fill="#FFFFFF" stroke="#000000" stroke-width="0.25" stroke-miterlimit="10" d="M1175.104,12.3h-23.336v849.6h23.336
		c20.27,0,36.698-15.66,36.698-34.98V47.282C1211.804,27.962,1195.373,12.3,1175.104,12.3z M1173.761,40.534
		c5.129,0,9.289,4.16,9.289,9.289c0,5.131-4.16,9.291-9.289,9.291c-5.132,0-9.291-4.16-9.291-9.291
		C1164.47,44.694,1168.629,40.534,1173.761,40.534z M1173.824,834.599c-5.131,0-9.289-4.16-9.289-9.291s4.158-9.289,9.289-9.289
		s9.289,4.158,9.289,9.289S1178.955,834.599,1173.824,834.599z"/>
	<path fill="#FFFFFF" stroke="#000000" stroke-width="0.25" stroke-miterlimit="10" d="M1175.104,861.899h-1.736v14.399h-21.601
		v820.8h21.601v14.4h1.736c20.27,0,36.698-15.662,36.698-34.98V896.88C1211.804,877.559,1195.373,861.899,1175.104,861.899z
		 M1173.705,1684.019c-5.129,0-9.289-4.16-9.289-9.291s4.16-9.289,9.289-9.289c5.131,0,9.291,4.158,9.291,9.289
		S1178.836,1684.019,1173.705,1684.019z M1173.83,908.638c-5.129,0-9.289-4.16-9.289-9.291s4.16-9.289,9.289-9.289
		c5.131,0,9.291,4.158,9.291,9.289S1178.961,908.638,1173.83,908.638z"/>
	<path fill="#FFFFFF" stroke="#000000" stroke-width="0.25" stroke-miterlimit="10" d="M1130.166,876.299v-14.399h-1.733
		c-20.271,0-36.701,15.661-36.701,34.98v779.639c0,19.32,16.432,34.98,36.701,34.98h1.733v-14.4h21.603v-820.8H1130.166z
		 M1129.769,889.169c5.132,0,9.289,4.158,9.289,9.289s-4.157,9.291-9.289,9.291c-5.131,0-9.291-4.16-9.291-9.291
		S1124.64,889.169,1129.769,889.169z M1129.822,1683.251c-5.129,0-9.289-4.158-9.289-9.291c0-5.131,4.16-9.289,9.289-9.289
		c5.131,0,9.289,4.158,9.289,9.289C1139.111,1679.093,1134.953,1683.251,1129.822,1683.251z"/>
</g>
<g>
	<path fill="#FFFFFF" stroke="#000000" stroke-width="0.25" stroke-miterlimit="10" d="M1248.511,12.3
		c-20.271,0-36.699,15.662-36.699,34.979v779.64c0,19.319,16.43,34.979,36.699,34.979h23.336v-849.6L1248.511,12.3L1248.511,12.3z
		 M1249.838,833.796c-5.129,0-9.289-4.16-9.289-9.291c0-5.129,4.16-9.289,9.289-9.289c5.132,0,9.291,4.159,9.291,9.289
		C1259.129,829.636,1254.97,833.796,1249.838,833.796z M1249.957,58.237c-5.131,0-9.289-4.16-9.289-9.291s4.158-9.289,9.289-9.289
		c5.132,0,9.289,4.158,9.289,9.289S1255.088,58.237,1249.957,58.237z"/>
	<path fill="#FFFFFF" stroke="#000000" stroke-width="0.25" stroke-miterlimit="10" d="M1295.181,12.3h-23.336v849.6h23.336
		c20.271,0,36.701-15.66,36.701-34.98V47.282C1331.883,27.962,1315.451,12.3,1295.181,12.3z M1293.838,40.534
		c5.132,0,9.291,4.16,9.291,9.289c0,5.131-4.159,9.291-9.291,9.291c-5.129,0-9.289-4.16-9.289-9.291
		C1284.549,44.694,1288.709,40.534,1293.838,40.534z M1293.904,834.599c-5.132,0-9.291-4.16-9.291-9.291s4.159-9.289,9.291-9.289
		c5.129,0,9.289,4.158,9.289,9.289S1299.033,834.599,1293.904,834.599z"/>
	<path fill="#FFFFFF" stroke="#000000" stroke-width="0.25" stroke-miterlimit="10" d="M1295.181,861.899h-1.733v14.399h-21.603
		v820.8h21.603v14.4h1.733c20.271,0,36.701-15.662,36.701-34.98V896.88C1331.883,877.559,1315.451,861.899,1295.181,861.899z
		 M1293.785,1684.019c-5.129,0-9.289-4.16-9.289-9.291s4.16-9.289,9.289-9.289c5.131,0,9.289,4.158,9.289,9.289
		S1298.916,1684.019,1293.785,1684.019z M1293.91,908.638c-5.129,0-9.289-4.16-9.289-9.291s4.16-9.289,9.289-9.289
		c5.131,0,9.289,4.158,9.289,9.289S1299.041,908.638,1293.91,908.638z"/>
	<path fill="#FFFFFF" stroke="#000000" stroke-width="0.25" stroke-miterlimit="10" d="M1250.246,876.299v-14.399h-1.736
		c-20.27,0-36.698,15.661-36.698,34.98v779.639c0,19.32,16.43,34.98,36.698,34.98h1.736v-14.4h21.601v-820.8H1250.246z
		 M1249.849,889.169c5.129,0,9.289,4.158,9.289,9.289s-4.159,9.291-9.289,9.291c-5.131,0-9.291-4.16-9.291-9.291
		S1244.72,889.169,1249.849,889.169z M1249.902,1683.251c-5.132,0-9.289-4.158-9.289-9.291c0-5.131,4.157-9.289,9.289-9.289
		c5.131,0,9.289,4.158,9.289,9.289C1259.191,1679.093,1255.033,1683.251,1249.902,1683.251z"/>
</g>
<g>
	<path fill="#FFFFFF" stroke="#000000" stroke-width="0.25" stroke-miterlimit="10" d="M1368.59,12.3
		c-20.27,0-36.698,15.662-36.698,34.979v779.64c0,19.319,16.43,34.979,36.698,34.979h23.336v-849.6L1368.59,12.3L1368.59,12.3z
		 M1369.918,833.796c-5.131,0-9.289-4.16-9.289-9.291c0-5.129,4.158-9.289,9.289-9.289c5.132,0,9.289,4.159,9.289,9.289
		C1379.207,829.636,1375.049,833.796,1369.918,833.796z M1370.035,58.237c-5.129,0-9.289-4.16-9.289-9.291s4.16-9.289,9.289-9.289
		c5.131,0,9.291,4.158,9.291,9.289S1375.166,58.237,1370.035,58.237z"/>
	<path fill="#FFFFFF" stroke="#000000" stroke-width="0.25" stroke-miterlimit="10" d="M1415.263,12.3h-23.336v849.6h23.336
		c20.27,0,36.7-15.66,36.7-34.98V47.282C1451.963,27.962,1435.531,12.3,1415.263,12.3z M1413.918,40.534
		c5.132,0,9.289,4.16,9.289,9.289c0,5.131-4.157,9.291-9.289,9.291c-5.131,0-9.289-4.16-9.289-9.291
		C1404.629,44.694,1408.787,40.534,1413.918,40.534z M1413.982,834.599c-5.129,0-9.289-4.16-9.289-9.291s4.159-9.289,9.289-9.289
		c5.131,0,9.289,4.158,9.289,9.289S1419.113,834.599,1413.982,834.599z"/>
	<path fill="#FFFFFF" stroke="#000000" stroke-width="0.25" stroke-miterlimit="10" d="M1415.263,861.899h-1.734v14.399h-21.602
		v820.8h21.602v14.4h1.734c20.27,0,36.7-15.662,36.7-34.98V896.88C1451.963,877.559,1435.531,861.899,1415.263,861.899z
		 M1413.865,1684.019c-5.131,0-9.289-4.16-9.289-9.291s4.158-9.289,9.289-9.289s9.289,4.158,9.289,9.289
		S1418.996,1684.019,1413.865,1684.019z M1413.99,908.638c-5.131,0-9.289-4.16-9.289-9.291s4.158-9.289,9.289-9.289
		c5.129,0,9.289,4.158,9.289,9.289S1419.119,908.638,1413.99,908.638z"/>
	<path fill="#FFFFFF" stroke="#000000" stroke-width="0.25" stroke-miterlimit="10" d="M1370.326,876.299v-14.399h-1.736
		c-20.27,0-36.698,15.661-36.698,34.98v779.639c0,19.32,16.43,34.98,36.698,34.98h1.736v-14.4h21.601v-820.8H1370.326z
		 M1369.929,889.169c5.131,0,9.291,4.158,9.291,9.289s-4.16,9.291-9.291,9.291c-5.129,0-9.289-4.16-9.289-9.291
		S1364.799,889.169,1369.929,889.169z M1369.982,1683.251c-5.132,0-9.291-4.158-9.291-9.291c0-5.131,4.159-9.289,9.291-9.289
		c5.129,0,9.289,4.158,9.289,9.289C1379.271,1679.093,1375.111,1683.251,1369.982,1683.251z"/>
</g>
<g>
	<path fill="#FFFFFF" stroke="#000000" stroke-width="0.25" stroke-miterlimit="10" d="M1488.668,12.3
		c-20.268,0-36.698,15.662-36.698,34.979v779.64c0,19.319,16.432,34.979,36.698,34.979h23.338v-849.6L1488.668,12.3L1488.668,12.3z
		 M1489.998,833.796c-5.131,0-9.291-4.16-9.291-9.291c0-5.129,4.16-9.289,9.291-9.289c5.129,0,9.289,4.159,9.289,9.289
		C1499.287,829.636,1495.127,833.796,1489.998,833.796z M1490.115,58.237c-5.131,0-9.289-4.16-9.289-9.291s4.158-9.289,9.289-9.289
		s9.289,4.158,9.289,9.289S1495.246,58.237,1490.115,58.237z"/>
	<path fill="#FFFFFF" stroke="#000000" stroke-width="0.25" stroke-miterlimit="10" d="M1535.343,12.3h-23.336v849.6h23.336
		c20.27,0,36.698-15.66,36.698-34.98V47.282C1572.041,27.962,1555.611,12.3,1535.343,12.3z M1533.998,40.534
		c5.129,0,9.289,4.16,9.289,9.289c0,5.131-4.16,9.291-9.289,9.291c-5.131,0-9.291-4.16-9.291-9.291
		C1524.707,44.694,1528.867,40.534,1533.998,40.534z M1534.062,834.599c-5.132,0-9.289-4.16-9.289-9.291s4.157-9.289,9.289-9.289
		c5.131,0,9.289,4.158,9.289,9.289S1539.193,834.599,1534.062,834.599z"/>
	<path fill="#FFFFFF" stroke="#000000" stroke-width="0.25" stroke-miterlimit="10" d="M1535.343,861.899h-1.736v14.399h-21.601
		v820.8h21.601v14.4h1.736c20.27,0,36.698-15.662,36.698-34.98V896.88C1572.041,877.559,1555.611,861.899,1535.343,861.899z
		 M1533.943,1684.019c-5.129,0-9.289-4.16-9.289-9.291s4.159-9.289,9.289-9.289c5.131,0,9.291,4.158,9.291,9.289
		S1539.074,1684.019,1533.943,1684.019z M1534.068,908.638c-5.129,0-9.289-4.16-9.289-9.291s4.159-9.289,9.289-9.289
		c5.131,0,9.291,4.158,9.291,9.289S1539.199,908.638,1534.068,908.638z"/>
	<path fill="#FFFFFF" stroke="#000000" stroke-width="0.25" stroke-miterlimit="10" d="M1490.404,876.299v-14.399h-1.736
		c-20.269,0-36.699,15.661-36.699,34.98v779.639c0,19.32,16.433,34.98,36.699,34.98h1.736v-14.4h21.602v-820.8H1490.404z
		 M1490.008,889.169c5.129,0,9.289,4.158,9.289,9.289s-4.159,9.291-9.289,9.291c-5.131,0-9.291-4.16-9.291-9.291
		S1484.877,889.169,1490.008,889.169z M1490.06,1683.251c-5.129,0-9.289-4.158-9.289-9.291c0-5.131,4.16-9.289,9.289-9.289
		c5.132,0,9.289,4.158,9.289,9.289C1499.349,1679.093,1495.191,1683.251,1490.06,1683.251z"/>
</g>
<g>
	<path fill="#FFFFFF" stroke="#000000" stroke-width="0.25" stroke-miterlimit="10" d="M1608.748,12.3
		c-20.271,0-36.699,15.662-36.699,34.979v779.64c0,19.319,16.431,34.979,36.699,34.979h23.336v-849.6L1608.748,12.3L1608.748,12.3z
		 M1610.076,833.796c-5.129,0-9.289-4.16-9.289-9.291c0-5.129,4.16-9.289,9.289-9.289c5.131,0,9.291,4.159,9.291,9.289
		C1619.367,829.636,1615.207,833.796,1610.076,833.796z M1610.195,58.237c-5.132,0-9.289-4.16-9.289-9.291s4.157-9.289,9.289-9.289
		c5.131,0,9.289,4.158,9.289,9.289S1615.326,58.237,1610.195,58.237z"/>
	<path fill="#FFFFFF" stroke="#000000" stroke-width="0.25" stroke-miterlimit="10" d="M1655.42,12.3h-23.336v849.6h23.336
		c20.271,0,36.701-15.66,36.701-34.98V47.282C1692.121,27.962,1675.689,12.3,1655.42,12.3z M1654.076,40.534
		c5.131,0,9.291,4.16,9.291,9.289c0,5.131-4.16,9.291-9.291,9.291c-5.129,0-9.289-4.16-9.289-9.291
		C1644.787,44.694,1648.947,40.534,1654.076,40.534z M1654.142,834.599c-5.131,0-9.291-4.16-9.291-9.291s4.16-9.289,9.291-9.289
		c5.129,0,9.289,4.158,9.289,9.289S1659.271,834.599,1654.142,834.599z"/>
	<path fill="#FFFFFF" stroke="#000000" stroke-width="0.25" stroke-miterlimit="10" d="M1655.42,861.899h-1.733v14.399h-21.603
		v820.8h21.603v14.4h1.733c20.271,0,36.701-15.662,36.701-34.98V896.88C1692.121,877.559,1675.689,861.899,1655.42,861.899z
		 M1654.023,1684.019c-5.129,0-9.289-4.16-9.289-9.291s4.159-9.289,9.289-9.289c5.131,0,9.289,4.158,9.289,9.289
		S1659.154,1684.019,1654.023,1684.019z M1654.148,908.638c-5.129,0-9.289-4.16-9.289-9.291s4.159-9.289,9.289-9.289
		c5.131,0,9.289,4.158,9.289,9.289S1659.279,908.638,1654.148,908.638z"/>
	<path fill="#FFFFFF" stroke="#000000" stroke-width="0.25" stroke-miterlimit="10" d="M1610.484,876.299v-14.399h-1.736
		c-20.271,0-36.699,15.661-36.699,34.98v779.639c0,19.32,16.431,34.98,36.699,34.98h1.736v-14.4h21.6v-820.8H1610.484z
		 M1610.088,889.169c5.129,0,9.289,4.158,9.289,9.289s-4.159,9.291-9.289,9.291c-5.131,0-9.291-4.16-9.291-9.291
		S1604.957,889.169,1610.088,889.169z M1610.14,1683.251c-5.131,0-9.289-4.158-9.289-9.291c0-5.131,4.158-9.289,9.289-9.289
		c5.132,0,9.289,4.158,9.289,9.289C1619.429,1679.093,1615.271,1683.251,1610.14,1683.251z"/>
</g>
<g>
	<path fill="#FFFFFF" stroke="#000000" stroke-width="0.25" stroke-miterlimit="10" d="M1728.828,12.3
		c-20.271,0-36.699,15.662-36.699,34.979v779.64c0,19.319,16.431,34.979,36.699,34.979h23.336v-849.6L1728.828,12.3L1728.828,12.3z
		 M1730.156,833.796c-5.129,0-9.289-4.16-9.289-9.291c0-5.129,4.16-9.289,9.289-9.289c5.131,0,9.291,4.159,9.291,9.289
		C1739.447,829.636,1735.287,833.796,1730.156,833.796z M1730.275,58.237c-5.132,0-9.289-4.16-9.289-9.291s4.157-9.289,9.289-9.289
		c5.131,0,9.289,4.158,9.289,9.289S1735.406,58.237,1730.275,58.237z"/>
	<path fill="#FFFFFF" stroke="#000000" stroke-width="0.25" stroke-miterlimit="10" d="M1775.5,12.3h-23.336v849.6h23.336
		c20.271,0,36.701-15.66,36.701-34.98V47.282C1812.201,27.962,1795.769,12.3,1775.5,12.3z M1774.156,40.534
		c5.131,0,9.291,4.16,9.291,9.289c0,5.131-4.16,9.291-9.291,9.291c-5.129,0-9.289-4.16-9.289-9.291
		C1764.867,44.694,1769.027,40.534,1774.156,40.534z M1774.222,834.599c-5.131,0-9.289-4.16-9.289-9.291s4.158-9.289,9.289-9.289
		c5.129,0,9.289,4.158,9.289,9.289S1779.351,834.599,1774.222,834.599z"/>
	<path fill="#FFFFFF" stroke="#000000" stroke-width="0.25" stroke-miterlimit="10" d="M1775.5,861.899h-1.733v14.399h-21.603v820.8
		h21.603v14.4h1.733c20.271,0,36.701-15.662,36.701-34.98V896.88C1812.201,877.559,1795.769,861.899,1775.5,861.899z
		 M1774.104,1684.019c-5.129,0-9.289-4.16-9.289-9.291s4.159-9.289,9.289-9.289c5.131,0,9.289,4.158,9.289,9.289
		S1779.234,1684.019,1774.104,1684.019z M1774.229,908.638c-5.129,0-9.289-4.16-9.289-9.291s4.159-9.289,9.289-9.289
		c5.131,0,9.289,4.158,9.289,9.289S1779.359,908.638,1774.229,908.638z"/>
	<path fill="#FFFFFF" stroke="#000000" stroke-width="0.25" stroke-miterlimit="10" d="M1730.564,876.299v-14.399h-1.736
		c-20.271,0-36.699,15.661-36.699,34.98v779.639c0,19.32,16.431,34.98,36.699,34.98h1.736v-14.4h21.6v-820.8H1730.564z
		 M1730.168,889.169c5.129,0,9.289,4.158,9.289,9.289s-4.159,9.291-9.289,9.291c-5.131,0-9.291-4.16-9.291-9.291
		S1725.037,889.169,1730.168,889.169z M1730.222,1683.251c-5.132,0-9.289-4.158-9.289-9.291c0-5.131,4.157-9.289,9.289-9.289
		c5.131,0,9.289,4.158,9.289,9.289C1739.511,1679.093,1735.351,1683.251,1730.222,1683.251z"/>
</g>
<g>
	<path fill="#FFFFFF" stroke="#000000" stroke-width="0.25" stroke-miterlimit="10" d="M47.732,13.7
		c-20.27,0-36.701,15.662-36.701,34.979v779.641c0,19.318,16.434,34.979,36.701,34.979h23.336v-849.6H47.732V13.7z M49.061,835.196
		c-5.131,0-9.291-4.16-9.291-9.291c0-5.129,4.16-9.289,9.291-9.289c5.129,0,9.289,4.158,9.289,9.289S54.189,835.196,49.061,835.196z
		 M49.178,59.638c-5.129,0-9.289-4.16-9.289-9.291s4.16-9.289,9.289-9.289c5.131,0,9.289,4.158,9.289,9.289
		S54.309,59.638,49.178,59.638z"/>
	<path fill="#FFFFFF" stroke="#000000" stroke-width="0.25" stroke-miterlimit="10" d="M94.404,13.7H71.068v849.6h23.336
		c20.271,0,36.699-15.66,36.699-34.98V48.683C131.104,29.362,114.674,13.7,94.404,13.7z M93.061,41.935
		c5.129,0,9.289,4.16,9.289,9.289c0,5.131-4.16,9.291-9.289,9.291c-5.131,0-9.291-4.16-9.291-9.291
		C83.77,46.095,87.93,41.935,93.061,41.935z M93.127,835.999c-5.133,0-9.289-4.16-9.289-9.291s4.156-9.289,9.289-9.289
		c5.131,0,9.289,4.158,9.289,9.289S98.256,835.999,93.127,835.999z"/>
	<path fill="#FFFFFF" stroke="#000000" stroke-width="0.25" stroke-miterlimit="10" d="M94.404,863.3H92.67v14.4H71.068v820.799
		H92.67v14.4h1.734c20.271,0,36.699-15.662,36.699-34.98V898.28C131.104,878.96,114.674,863.3,94.404,863.3z M93.006,1685.419
		c-5.129,0-9.289-4.16-9.289-9.291s4.16-9.289,9.289-9.289c5.131,0,9.291,4.158,9.291,9.289S98.137,1685.419,93.006,1685.419z
		 M93.131,910.038c-5.129,0-9.289-4.16-9.289-9.291s4.16-9.289,9.289-9.289c5.131,0,9.291,4.158,9.291,9.289
		S98.262,910.038,93.131,910.038z"/>
	<path fill="#FFFFFF" stroke="#000000" stroke-width="0.25" stroke-miterlimit="10" d="M49.467,877.7v-14.4h-1.734
		c-20.27,0-36.701,15.662-36.701,34.98v779.639c0,19.32,16.434,34.98,36.701,34.98h1.734v-14.4h21.602V877.7H49.467z M49.07,890.569
		c5.131,0,9.289,4.158,9.289,9.289s-4.158,9.291-9.289,9.291s-9.289-4.16-9.289-9.291S43.939,890.569,49.07,890.569z
		 M49.125,1684.651c-5.129,0-9.289-4.158-9.289-9.291c0-5.131,4.158-9.289,9.289-9.289s9.289,4.158,9.289,9.289
		C58.414,1680.493,54.254,1684.651,49.125,1684.651z"/>
</g>
<g>
	<path fill="#FFFFFF" stroke="#000000" stroke-width="0.25" stroke-miterlimit="10" d="M167.811,13.7
		c-20.27,0-36.701,15.662-36.701,34.979v779.641c0,19.318,16.434,34.979,36.701,34.979h23.336v-849.6h-23.336V13.7z
		 M169.139,835.196c-5.131,0-9.289-4.16-9.289-9.291c0-5.129,4.158-9.289,9.289-9.289s9.289,4.158,9.289,9.289
		S174.27,835.196,169.139,835.196z M169.256,59.638c-5.129,0-9.289-4.16-9.289-9.291s4.16-9.289,9.289-9.289
		c5.131,0,9.291,4.158,9.291,9.289S174.387,59.638,169.256,59.638z"/>
	<path fill="#FFFFFF" stroke="#000000" stroke-width="0.25" stroke-miterlimit="10" d="M214.482,13.7h-23.336v849.6h23.336
		c20.271,0,36.699-15.66,36.699-34.98V48.683C251.182,29.362,234.754,13.7,214.482,13.7z M213.139,41.935
		c5.131,0,9.289,4.16,9.289,9.289c0,5.131-4.158,9.291-9.289,9.291s-9.289-4.16-9.289-9.291
		C203.85,46.095,208.008,41.935,213.139,41.935z M213.203,835.999c-5.129,0-9.289-4.16-9.289-9.291s4.16-9.289,9.289-9.289
		c5.133,0,9.289,4.158,9.289,9.289S218.336,835.999,213.203,835.999z"/>
	<path fill="#FFFFFF" stroke="#000000" stroke-width="0.25" stroke-miterlimit="10" d="M214.482,863.3h-1.736v14.4h-21.6v820.799
		h21.6v14.4h1.736c20.271,0,36.699-15.662,36.699-34.98V898.28C251.182,878.96,234.754,863.3,214.482,863.3z M213.088,1685.419
		c-5.133,0-9.291-4.16-9.291-9.291s4.158-9.289,9.291-9.289c5.129,0,9.289,4.158,9.289,9.289S218.215,1685.419,213.088,1685.419z
		 M213.213,910.038c-5.133,0-9.291-4.16-9.291-9.291s4.158-9.289,9.291-9.289c5.129,0,9.289,4.158,9.289,9.289
		S218.34,910.038,213.213,910.038z"/>
	<path fill="#FFFFFF" stroke="#000000" stroke-width="0.25" stroke-miterlimit="10" d="M169.545,877.7v-14.4h-1.734
		c-20.27,0-36.701,15.662-36.701,34.98v779.639c0,19.32,16.434,34.98,36.701,34.98h1.734v-14.4h21.602V877.7H169.545z
		 M169.148,890.569c5.131,0,9.289,4.158,9.289,9.289s-4.158,9.291-9.289,9.291c-5.129,0-9.289-4.16-9.289-9.291
		S164.02,890.569,169.148,890.569z M169.201,1684.651c-5.129,0-9.289-4.158-9.289-9.291c0-5.131,4.16-9.289,9.289-9.289
		c5.133,0,9.291,4.158,9.291,9.289C178.492,1680.493,174.334,1684.651,169.201,1684.651z"/>
</g>
<g>
	<path fill="#FFFFFF" stroke="#000000" stroke-width="0.25" stroke-miterlimit="10" d="M287.891,13.7
		c-20.27,0-36.701,15.662-36.701,34.979v779.641c0,19.318,16.432,34.979,36.701,34.979h23.336v-849.6h-23.336V13.7z
		 M289.217,835.196c-5.129,0-9.289-4.16-9.289-9.291c0-5.129,4.16-9.289,9.289-9.289c5.131,0,9.291,4.158,9.291,9.289
		S294.348,835.196,289.217,835.196z M289.338,59.638c-5.129,0-9.289-4.16-9.289-9.291s4.158-9.289,9.289-9.289
		s9.289,4.158,9.289,9.289S294.467,59.638,289.338,59.638z"/>
	<path fill="#FFFFFF" stroke="#000000" stroke-width="0.25" stroke-miterlimit="10" d="M334.562,13.7h-23.336v849.6h23.336
		c20.271,0,36.699-15.66,36.699-34.98V48.683C371.262,29.362,354.834,13.7,334.562,13.7z M333.217,41.935
		c5.131,0,9.291,4.16,9.291,9.289c0,5.131-4.16,9.291-9.291,9.291c-5.129,0-9.289-4.16-9.289-9.291
		C323.928,46.095,328.088,41.935,333.217,41.935z M333.283,835.999c-5.131,0-9.289-4.16-9.289-9.291s4.158-9.289,9.289-9.289
		c5.133,0,9.289,4.158,9.289,9.289S338.416,835.999,333.283,835.999z"/>
	<path fill="#FFFFFF" stroke="#000000" stroke-width="0.25" stroke-miterlimit="10" d="M334.562,863.3h-1.736v14.4h-21.6v820.799
		h21.6v14.4h1.736c20.271,0,36.699-15.662,36.699-34.98V898.28C371.262,878.96,354.834,863.3,334.562,863.3z M333.166,1685.419
		c-5.129,0-9.289-4.16-9.289-9.291s4.158-9.289,9.289-9.289s9.291,4.158,9.291,9.289S338.295,1685.419,333.166,1685.419z
		 M333.291,910.038c-5.129,0-9.289-4.16-9.289-9.291s4.158-9.289,9.289-9.289s9.291,4.158,9.291,9.289
		S338.42,910.038,333.291,910.038z"/>
	<path fill="#FFFFFF" stroke="#000000" stroke-width="0.25" stroke-miterlimit="10" d="M289.627,877.7v-14.4h-1.734
		c-20.27,0-36.701,15.662-36.701,34.98v779.639c0,19.32,16.432,34.98,36.701,34.98h1.734v-14.4h21.602V877.7H289.627z
		 M289.229,890.569c5.131,0,9.289,4.158,9.289,9.289s-4.158,9.291-9.289,9.291s-9.289-4.16-9.289-9.291
		S284.098,890.569,289.229,890.569z M289.281,1684.651c-5.129,0-9.289-4.158-9.289-9.291c0-5.131,4.16-9.289,9.289-9.289
		c5.133,0,9.289,4.158,9.289,9.289C298.57,1680.493,294.412,1684.651,289.281,1684.651z"/>
</g>
<g>
	<path fill="#FFFFFF" stroke="#000000" stroke-width="0.25" stroke-miterlimit="10" d="M407.971,13.7
		c-20.27,0-36.701,15.662-36.701,34.979v779.641c0,19.318,16.432,34.979,36.701,34.979h23.336v-849.6h-23.336V13.7z
		 M409.299,835.196c-5.131,0-9.291-4.16-9.291-9.291c0-5.129,4.16-9.289,9.291-9.289c5.129,0,9.289,4.158,9.289,9.289
		S414.428,835.196,409.299,835.196z M409.418,59.638c-5.129,0-9.289-4.16-9.289-9.291s4.158-9.289,9.289-9.289
		s9.289,4.158,9.289,9.289S414.547,59.638,409.418,59.638z"/>
	<path fill="#FFFFFF" stroke="#000000" stroke-width="0.25" stroke-miterlimit="10" d="M454.641,13.7h-23.334v849.6h23.334
		c20.271,0,36.701-15.66,36.701-34.98V48.683C491.342,29.362,474.912,13.7,454.641,13.7z M453.299,41.935
		c5.129,0,9.289,4.16,9.289,9.289c0,5.131-4.16,9.291-9.289,9.291c-5.131,0-9.291-4.16-9.291-9.291
		C444.008,46.095,448.17,41.935,453.299,41.935z M453.363,835.999c-5.131,0-9.289-4.16-9.289-9.291s4.158-9.289,9.289-9.289
		c5.129,0,9.289,4.158,9.289,9.289S458.492,835.999,453.363,835.999z"/>
	<path fill="#FFFFFF" stroke="#000000" stroke-width="0.25" stroke-miterlimit="10" d="M454.641,863.3h-1.734v14.4h-21.6v820.799
		h21.6v14.4h1.734c20.271,0,36.701-15.662,36.701-34.98V898.28C491.342,878.96,474.912,863.3,454.641,863.3z M453.244,1685.419
		c-5.129,0-9.289-4.16-9.289-9.291s4.16-9.289,9.289-9.289c5.133,0,9.291,4.158,9.291,9.289S458.377,1685.419,453.244,1685.419z
		 M453.369,910.038c-5.129,0-9.289-4.16-9.289-9.291s4.16-9.289,9.289-9.289c5.133,0,9.289,4.158,9.289,9.289
		S458.502,910.038,453.369,910.038z"/>
	<path fill="#FFFFFF" stroke="#000000" stroke-width="0.25" stroke-miterlimit="10" d="M409.705,877.7v-14.4h-1.732
		c-20.271,0-36.701,15.662-36.701,34.98v779.639c0,19.32,16.432,34.98,36.701,34.98h1.732v-14.4h21.604V877.7H409.705z
		 M409.309,890.569c5.131,0,9.289,4.158,9.289,9.289s-4.158,9.291-9.289,9.291s-9.289-4.16-9.289-9.291
		S404.178,890.569,409.309,890.569z M409.361,1684.651c-5.129,0-9.289-4.158-9.289-9.291c0-5.131,4.16-9.289,9.289-9.289
		c5.131,0,9.289,4.158,9.289,9.289C418.65,1680.493,414.492,1684.651,409.361,1684.651z"/>
</g>
<g>
	<path fill="#FFFFFF" stroke="#000000" stroke-width="0.25" stroke-miterlimit="10" d="M528.049,13.7
		c-20.27,0-36.701,15.662-36.701,34.979v779.641c0,19.318,16.432,34.979,36.701,34.979h23.336v-849.6h-23.336V13.7z
		 M529.379,835.196c-5.133,0-9.289-4.16-9.289-9.291c0-5.129,4.156-9.289,9.289-9.289c5.131,0,9.289,4.158,9.289,9.289
		S534.508,835.196,529.379,835.196z M529.494,59.638c-5.129,0-9.289-4.16-9.289-9.291s4.16-9.289,9.289-9.289
		c5.133,0,9.291,4.158,9.291,9.289S534.627,59.638,529.494,59.638z"/>
	<path fill="#FFFFFF" stroke="#000000" stroke-width="0.25" stroke-miterlimit="10" d="M574.721,13.7h-23.336v849.6h23.336
		c20.27,0,36.701-15.66,36.701-34.98V48.683C611.422,29.362,594.99,13.7,574.721,13.7z M573.379,41.935
		c5.131,0,9.289,4.16,9.289,9.289c0,5.131-4.158,9.291-9.289,9.291c-5.133,0-9.289-4.16-9.289-9.291
		C564.088,46.095,568.246,41.935,573.379,41.935z M573.441,835.999c-5.129,0-9.289-4.16-9.289-9.291s4.16-9.289,9.289-9.289
		c5.131,0,9.289,4.158,9.289,9.289S578.572,835.999,573.441,835.999z"/>
	<path fill="#FFFFFF" stroke="#000000" stroke-width="0.25" stroke-miterlimit="10" d="M574.721,863.3h-1.736v14.4h-21.6v820.799
		h21.6v14.4h1.736c20.27,0,36.701-15.662,36.701-34.98V898.28C611.422,878.96,594.99,863.3,574.721,863.3z M573.324,1685.419
		c-5.131,0-9.291-4.16-9.291-9.291s4.16-9.289,9.291-9.289c5.129,0,9.289,4.158,9.289,9.289S578.453,1685.419,573.324,1685.419z
		 M573.449,910.038c-5.131,0-9.291-4.16-9.291-9.291s4.16-9.289,9.291-9.289c5.129,0,9.289,4.158,9.289,9.289
		S578.578,910.038,573.449,910.038z"/>
	<path fill="#FFFFFF" stroke="#000000" stroke-width="0.25" stroke-miterlimit="10" d="M529.783,877.7v-14.4h-1.732
		c-20.271,0-36.701,15.662-36.701,34.98v779.639c0,19.32,16.432,34.98,36.701,34.98h1.732v-14.4h21.604V877.7H529.783z
		 M529.387,890.569c5.131,0,9.289,4.158,9.289,9.289s-4.158,9.291-9.289,9.291c-5.129,0-9.289-4.16-9.289-9.291
		S524.258,890.569,529.387,890.569z M529.439,1684.651c-5.129,0-9.289-4.158-9.289-9.291c0-5.131,4.16-9.289,9.289-9.289
		c5.131,0,9.291,4.158,9.291,9.289C538.73,1680.493,534.57,1684.651,529.439,1684.651z"/>
</g>
<g>
	<path fill="#FFFFFF" stroke="#000000" stroke-width="0.25" stroke-miterlimit="10" d="M648.129,13.7
		c-20.27,0-36.701,15.662-36.701,34.979v779.641c0,19.318,16.432,34.979,36.701,34.979h23.336v-849.6h-23.336V13.7z
		 M649.455,835.196c-5.129,0-9.289-4.16-9.289-9.291c0-5.129,4.16-9.289,9.289-9.289c5.133,0,9.291,4.158,9.291,9.289
		S654.588,835.196,649.455,835.196z M649.574,59.638c-5.129,0-9.289-4.16-9.289-9.291s4.16-9.289,9.289-9.289
		c5.133,0,9.289,4.158,9.289,9.289S654.705,59.638,649.574,59.638z"/>
	<path fill="#FFFFFF" stroke="#000000" stroke-width="0.25" stroke-miterlimit="10" d="M694.801,13.7h-23.336v849.6h23.336
		c20.27,0,36.699-15.66,36.699-34.98V48.683C731.502,29.362,715.07,13.7,694.801,13.7z M693.455,41.935
		c5.133,0,9.291,4.16,9.291,9.289c0,5.131-4.158,9.291-9.291,9.291c-5.129,0-9.289-4.16-9.289-9.291
		C684.168,46.095,688.326,41.935,693.455,41.935z M693.521,835.999c-5.131,0-9.289-4.16-9.289-9.291s4.158-9.289,9.289-9.289
		s9.289,4.158,9.289,9.289S698.652,835.999,693.521,835.999z"/>
	<path fill="#FFFFFF" stroke="#000000" stroke-width="0.25" stroke-miterlimit="10" d="M694.801,863.3h-1.736v14.4h-21.6v820.799
		h21.6v14.4h1.736c20.27,0,36.699-15.662,36.699-34.98V898.28C731.502,878.96,715.07,863.3,694.801,863.3z M693.402,1685.419
		c-5.129,0-9.289-4.16-9.289-9.291s4.16-9.289,9.289-9.289c5.131,0,9.291,4.158,9.291,9.289S698.533,1685.419,693.402,1685.419z
		 M693.527,910.038c-5.129,0-9.289-4.16-9.289-9.291s4.16-9.289,9.289-9.289c5.131,0,9.291,4.158,9.291,9.289
		S698.658,910.038,693.527,910.038z"/>
	<path fill="#FFFFFF" stroke="#000000" stroke-width="0.25" stroke-miterlimit="10" d="M649.863,877.7v-14.4h-1.732
		c-20.271,0-36.701,15.662-36.701,34.98v779.639c0,19.32,16.432,34.98,36.701,34.98h1.732v-14.4h21.604V877.7H649.863z
		 M649.467,890.569c5.131,0,9.289,4.158,9.289,9.289s-4.158,9.291-9.289,9.291s-9.289-4.16-9.289-9.291
		S644.338,890.569,649.467,890.569z M649.52,1684.651c-5.131,0-9.289-4.158-9.289-9.291c0-5.131,4.158-9.289,9.289-9.289
		s9.289,4.158,9.289,9.289C658.809,1680.493,654.65,1684.651,649.52,1684.651z"/>
</g>
<g>
	<path fill="#FFFFFF" stroke="#000000" stroke-width="0.25" stroke-miterlimit="10" d="M768.211,13.7
		c-20.271,0-36.701,15.662-36.701,34.979v779.641c0,19.318,16.432,34.979,36.701,34.979h23.336v-849.6h-23.336V13.7z
		 M769.537,835.196c-5.131,0-9.291-4.16-9.291-9.291c0-5.129,4.16-9.289,9.291-9.289c5.129,0,9.289,4.158,9.289,9.289
		S774.668,835.196,769.537,835.196z M769.654,59.638c-5.129,0-9.289-4.16-9.289-9.291s4.16-9.289,9.289-9.289
		c5.133,0,9.289,4.158,9.289,9.289S774.785,59.638,769.654,59.638z"/>
	<path fill="#FFFFFF" stroke="#000000" stroke-width="0.25" stroke-miterlimit="10" d="M814.879,13.7h-23.334v849.6h23.334
		c20.271,0,36.701-15.66,36.701-34.98V48.683C851.58,29.362,835.15,13.7,814.879,13.7z M813.537,41.935
		c5.129,0,9.289,4.16,9.289,9.289c0,5.131-4.158,9.291-9.289,9.291s-9.291-4.16-9.291-9.291
		C804.246,46.095,808.406,41.935,813.537,41.935z M813.602,835.999c-5.131,0-9.289-4.16-9.289-9.291s4.158-9.289,9.289-9.289
		c5.129,0,9.289,4.158,9.289,9.289S818.73,835.999,813.602,835.999z"/>
	<path fill="#FFFFFF" stroke="#000000" stroke-width="0.25" stroke-miterlimit="10" d="M814.879,863.3h-1.734v14.4h-21.6v820.799
		h21.6v14.4h1.734c20.271,0,36.701-15.662,36.701-34.98V898.28C851.58,878.96,835.15,863.3,814.879,863.3z M813.482,1685.419
		c-5.129,0-9.289-4.16-9.289-9.291s4.16-9.289,9.289-9.289c5.131,0,9.291,4.158,9.291,9.289S818.613,1685.419,813.482,1685.419z
		 M813.607,910.038c-5.129,0-9.289-4.16-9.289-9.291s4.16-9.289,9.289-9.289c5.131,0,9.289,4.158,9.289,9.289
		S818.738,910.038,813.607,910.038z"/>
	<path fill="#FFFFFF" stroke="#000000" stroke-width="0.25" stroke-miterlimit="10" d="M769.943,877.7v-14.4h-1.732
		c-20.271,0-36.701,15.662-36.701,34.98v779.639c0,19.32,16.432,34.98,36.701,34.98h1.732v-14.4h21.604V877.7H769.943z
		 M769.547,890.569c5.131,0,9.289,4.158,9.289,9.289s-4.158,9.291-9.289,9.291s-9.289-4.16-9.289-9.291
		S764.418,890.569,769.547,890.569z M769.6,1684.651c-5.129,0-9.289-4.158-9.289-9.291c0-5.131,4.16-9.289,9.289-9.289
		c5.131,0,9.289,4.158,9.289,9.289C778.889,1680.493,774.73,1684.651,769.6,1684.651z"/>
</g>
<g>
	<path fill="#FFFFFF" stroke="#000000" stroke-width="0.25" stroke-miterlimit="10" d="M888.281,13.7
		c-20.271,0-36.701,15.662-36.701,34.979v779.641c0,19.318,16.432,34.979,36.701,34.979h23.336v-849.6h-23.336V13.7z
		 M889.607,835.196c-5.131,0-9.291-4.16-9.291-9.291c0-5.129,4.16-9.289,9.291-9.289c5.129,0,9.289,4.158,9.289,9.289
		S894.738,835.196,889.607,835.196z M889.725,59.638c-5.129,0-9.289-4.16-9.289-9.291s4.16-9.289,9.289-9.289
		c5.133,0,9.289,4.158,9.289,9.289S894.855,59.638,889.725,59.638z"/>
	<path fill="#FFFFFF" stroke="#000000" stroke-width="0.25" stroke-miterlimit="10" d="M934.949,13.7h-23.334v849.6h23.334
		c20.271,0,36.701-15.66,36.701-34.98V48.683C971.65,29.362,955.221,13.7,934.949,13.7z M933.607,41.935
		c5.129,0,9.289,4.16,9.289,9.289c0,5.131-4.158,9.291-9.289,9.291s-9.291-4.16-9.291-9.291
		C924.316,46.095,928.477,41.935,933.607,41.935z M933.672,835.999c-5.131,0-9.289-4.16-9.289-9.291s4.158-9.289,9.289-9.289
		c5.129,0,9.289,4.158,9.289,9.289S938.801,835.999,933.672,835.999z"/>
	<path fill="#FFFFFF" stroke="#000000" stroke-width="0.25" stroke-miterlimit="10" d="M934.949,863.3h-1.734v14.4h-21.6v820.799
		h21.6v14.4h1.734c20.271,0,36.701-15.662,36.701-34.98V898.28C971.65,878.96,955.221,863.3,934.949,863.3z M933.553,1685.419
		c-5.129,0-9.289-4.16-9.289-9.291s4.16-9.289,9.289-9.289c5.131,0,9.291,4.158,9.291,9.289S938.684,1685.419,933.553,1685.419z
		 M933.678,910.038c-5.129,0-9.289-4.16-9.289-9.291s4.16-9.289,9.289-9.289c5.131,0,9.289,4.158,9.289,9.289
		S938.809,910.038,933.678,910.038z"/>
	<path fill="#FFFFFF" stroke="#000000" stroke-width="0.25" stroke-miterlimit="10" d="M890.014,877.7v-14.4h-1.732
		c-20.271,0-36.701,15.662-36.701,34.98v779.639c0,19.32,16.432,34.98,36.701,34.98h1.732v-14.4h21.604V877.7H890.014z
		 M889.617,890.569c5.131,0,9.289,4.158,9.289,9.289s-4.158,9.291-9.289,9.291s-9.289-4.16-9.289-9.291
		S884.488,890.569,889.617,890.569z M889.67,1684.651c-5.129,0-9.289-4.158-9.289-9.291c0-5.131,4.16-9.289,9.289-9.289
		c5.131,0,9.289,4.158,9.289,9.289C898.959,1680.493,894.801,1684.651,889.67,1684.651z"/>
</g>
</svg>
